<svg width="283" height="51" fill="none" xmlns="http://www.w3.org/2000/svg"><path d="M74.737 41.047l.446 3.652.35.37h.252a2.114 2.114 0 001.426-.7c.48-.568.836-1.23 1.047-1.943l-6.373-13.83-1.28-.311v-1.777h7.266v1.777l-1.038.126-.253.457 3.823 8.41 2.628-8.167-.203-.544-1.184-.282v-1.777h5.18v1.777l-1.115.282-4.424 13.005a11.543 11.543 0 01-2.376 4.574 4.462 4.462 0 01-3.338 1.38 7.261 7.261 0 01-3.123-.797v-5.682h2.29zm28.502-14.54v6.168h-2.348l-.397-3.72-.398-.36h-4.647v6.596c.83-.112 1.666-.173 2.503-.185a6.904 6.904 0 014.589 1.38 5.75 5.75 0 011.94 4.73 6.047 6.047 0 01-1.504 4.321 6.413 6.413 0 01-4.715 1.661h-8.818v-1.777l1.164-.127.398-.582V28.868l-.398-.457-1.164-.126v-1.777h13.795zm-7.76 18.454c.38.046.761.065 1.144.059a2.84 2.84 0 002.474-.972 4.267 4.267 0 00.756-2.855 4.647 4.647 0 00-.97-3.225 2.532 2.532 0 00-2.066-.796 4.986 4.986 0 00-1.377.184l.038 7.605zm21.535-18.453l5.821 18.56 1.116.253v1.777h-7.276v-1.777l1.29-.156.194-.398-1.319-4.575h-5.316l-1.252 4.546.252.36 1.174.223v1.777h-5.18v-1.777l1.203-.127 5.723-18.687h3.57zm-4.928 11.655h4.007l-2.028-6.8-1.979 6.8zm22.342-11.655v1.777l-1.077.126-.407.457v6.293h6.238v-6.293l-.398-.457-1.087-.126v-1.777h7.471v1.777l-1.146.126-.388.457v15.744l.388.582 1.146.127v1.777h-7.471v-1.777l1.087-.127.398-.582v-7.178h-6.238v7.178l.407.582 1.077.127v1.777h-7.46v-1.777l1.106-.127.427-.582V28.868l-.427-.457-1.106-.126v-1.777h7.46zm21.818 0v1.777l-1.271.126-.427.457v5.827a21.817 21.817 0 012.658-.184 5.81 5.81 0 014.713 1.724 5.826 5.826 0 011.621 4.754 6.21 6.21 0 01-1.504 4.448 6.386 6.386 0 01-4.714 1.661h-8.73v-1.777l1.155-.127.407-.582V28.868l-.407-.457-1.155-.126v-1.777h7.654zm-1.698 18.453c.31 0 .708.059 1.155.059a2.908 2.908 0 002.473-.972 4.688 4.688 0 00.747-2.913 5.656 5.656 0 00-.873-3.41 2.567 2.567 0 00-2.125-.854 4.678 4.678 0 00-1.377.184v7.906zm38.117.36l1.182-.127.485-.582V28.868l-.33-.457-1.337-.126v-1.777h7.663c2.823 0 4.141.699 4.715 1.107 1.677 1.127 2.27 2.914 2.27 5.118a7.003 7.003 0 01-1.747 5.128 7.25 7.25 0 01-5.336 1.875 11.703 11.703 0 01-1.473-.097v4.973l.367.582 1.436.127v1.777h-7.895v-1.777zm6.11-7.77h.204a3.512 3.512 0 002.6-.865 5.451 5.451 0 001.068-3.652 7.078 7.078 0 00-.602-3.04 2.428 2.428 0 00-2.251-1.408h-1.019v8.965zm11.252 7.77l1.272-.127.398-.582V28.868l-.398-.457-1.272-.126v-1.777h12.913v5.118h-1.736l-.398-2.7-.349-.33h-4.424v6.77h2.63l.368-.418.252-2.215h1.776v7.547h-1.776l-.252-2.205-.368-.427h-2.63v7.362h5.19l.358-.495.399-3.37h1.737v5.953h-13.69v-1.777zm33.479-18.813v1.777l-1.135.126-.406.457V44.64l.309.369h1.427v5.37h-2.087l-.649-2.748-.349-.495h-11.031l-.349.495-.649 2.749h-2.066v-5.37h.834a34.588 34.588 0 003.452-8.042 46.687 46.687 0 001.534-7.955l-.398-.456-1.698-.243v-1.806h13.261zm-5.984 18.453V28.596h-2.794a50.533 50.533 0 01-1.853 9.596 36.189 36.189 0 01-2.911 6.798l7.558-.029zm16.831-18.453v1.777l-1.087.126-.398.457v11.325l6.645-10.461v-.864l-.406-.457-1.087-.126v-1.777h7.47v1.777l-1.145.126-.398.457v15.744l.398.582 1.145.127v1.777h-7.47v-1.777l1.087-.127.406-.582V33.044l-6.645 10.47v1.098l.398.582 1.087.127v1.777h-7.47v-1.777l1.116-.127.416-.582V28.868l-.416-.457-1.116-.126v-1.777h7.47zm28.647 0v5.235h-1.679l-.532-2.788-.447-.36h-2.378v16.017l.485.582 1.263.127v1.777h-7.926v-1.777l1.26-.127.487-.582V28.596h-2.427l-.435.36-.497 2.787h-1.686v-5.235H283zM67.335 45.194l-.397-.796-4.153-10.674 4.085-5.313 1.038-.126v-1.777H62.33v1.777l.504.282.204.553-5.54 7.022v-7.274l.398-.457 1.038-.126v-1.777h-7.518v1.777l1.232.126.407.457v15.744l-.407.582-1.232.127v1.777h7.518v-1.777l-1.038-.127-.398-.582V40.59l1.98-2.565 3.599 9.072h5.296V45.32l-1.038-.127zm121.613 0l-.408-.796-4.141-10.674 4.083-5.313 1.445-.126v-1.777h-5.985v1.777l.504.282.204.553-5.549 7.022v-7.274l.408-.457 1.037-.126v-1.777h-7.518v1.777l1.232.126.408.457v15.744l-.408.582-1.232.127v1.777h7.518v-1.777l-1.037-.127-.408-.582V40.59l1.979-2.565 3.61 9.072h5.703V45.32l-1.445-.127zM51.416 15.62l1.232-.068.29-.35V5.635l-.29-.281-1.232-.068V4.198h6.218v1.088l-1.077.068-.3.281V9.59h.834c.388.022.772-.091 1.086-.321.328-.309.578-.692.728-1.117l.747-1.797a4.341 4.341 0 011.232-1.942 2.25 2.25 0 011.543-.544 1.941 1.941 0 011.523.583c.284.3.438.702.426 1.116a1.681 1.681 0 01-1.494 1.749L61.36 6.014c-.159.25-.29.517-.388.797l-.591 1.515a2.69 2.69 0 01-1.378 1.71 3.298 3.298 0 011.62.806 5.25 5.25 0 011.252 1.748l1.144 2.525.35.291 1.319.107v1.088h-4.85v-.728l-1.495-3.37a3.226 3.226 0 00-.65-1.098 1.29 1.29 0 00-.97-.35h-.504v4.196l.3.35 1.077.067v1.088h-6.18V15.62zM76.24 5.257a6.643 6.643 0 012.49 5.018 6.651 6.651 0 01-2.229 5.141 7.425 7.425 0 01-4.734 1.583 7.058 7.058 0 01-4.433-1.437 6.447 6.447 0 01-2.309-5.187 6.231 6.231 0 012.309-5.07 7.533 7.533 0 014.627-1.398 7.086 7.086 0 014.279 1.32v.03zm-6.422 1.175a7.03 7.03 0 00-1.068 4.08 6.485 6.485 0 001.106 4.02 2.543 2.543 0 002.067 1.078 2.48 2.48 0 001.988-.971 7.234 7.234 0 001.116-4.235 6.476 6.476 0 00-.97-3.885 2.62 2.62 0 00-2.183-1.156 2.499 2.499 0 00-2.056 1.069zm10.08 9.198l1.309-.078.223-.35V5.636l-.223-.282-1.31-.068V4.198h6.015v.544l2.58 7.809 2.542-7.828v-.525h6.034v1.088l-1.387.068-.233.282v9.566l.233.35 1.387.078v1.078h-6.034V15.63l1.164-.078.165-.35V5.578h-.039l-3.647 11.131h-1.882l-3.658-11.13h-.029v9.625l.223.35 1.223.077v1.078h-4.657V15.63zm18.12 0l1.31-.078.214-.35V5.636l-.214-.282-1.31-.068V4.198h6.015v.544l2.571 7.809 2.551-7.828v-.525h6.034v1.088l-1.396.068-.224.282v9.566l.224.35 1.396.078v1.078h-6.034V15.63l1.155-.078.165-.35V5.578h-.029l-3.658 11.131h-1.872l-3.657-11.13h-.039v9.625l.233.35 1.222.077v1.078H98.02V15.63zm18.209 0l1.242-.078.301-.35V5.636l-.301-.282-1.242-.068V4.198h10.245v3.108h-1.601l-.301-1.632-.262-.203h-3.288v4.118h1.95l.281-.263.184-1.35h1.329v4.594h-1.329l-.184-1.35-.281-.252h-1.95v4.477h3.871l.262-.3.29-2.05h1.601v3.613h-10.817V15.63zm11.981-.01l1.184-.068.359-.35V5.635l-.243-.281-1.3-.068V4.198h6.025a6.975 6.975 0 013.521.67 3.237 3.237 0 011.698 3.108 3.886 3.886 0 01-1.31 3.118 6.204 6.204 0 01-3.987 1.136c-.366 0-.732-.019-1.096-.058v3.03l.281.35 1.378.068v1.088h-6.51V15.62zm4.851-4.71h.155a2.966 2.966 0 001.94-.525 2.856 2.856 0 00.805-2.214 3.582 3.582 0 00-.446-1.846 1.865 1.865 0 00-1.678-.855h-.767l-.009 5.44zm12.738-6.712v1.088l-.97.068-.302.282v2.496a2.552 2.552 0 00.389 1.66 1.817 1.817 0 001.504.574 6.23 6.23 0 002.124-.428V5.636l-.31-.282-.971-.068V4.198h6.103v1.088l-1.154.068-.302.282v9.566l.302.35 1.154.068v1.088h-6.431V15.62l1.386-.068.272-.35v-3.884a13.565 13.565 0 01-3.134.427 4.409 4.409 0 01-3.356-1.107 3.497 3.497 0 01-.689-2.555V5.636l-.32-.282-1.019-.068V4.198h5.724zm8.537 11.432l1.241-.078.291-.35V5.636l-.291-.282-1.241-.068V4.198h10.235v3.108h-1.611l-.291-1.632-.262-.203h-3.298v4.118h1.959l.281-.263.185-1.35h1.318v4.594h-1.318l-.185-1.35-.281-.252h-1.959v4.477h3.879l.253-.3.302-2.05h1.609v3.613h-10.816V15.63zm23.33.63a12.25 12.25 0 01-4.007.71 7.003 7.003 0 01-5.141-1.768 6.491 6.491 0 01-1.619-2.456 6.488 6.488 0 01-.364-2.919 6.507 6.507 0 01.966-2.779 6.461 6.461 0 012.094-2.063 7.506 7.506 0 014.162-1.03 10.89 10.89 0 013.879.748v3.38h-1.717l-.445-2.302-.321-.291a3.51 3.51 0 00-.969-.117 3.679 3.679 0 00-2.677 1.049 5.487 5.487 0 00-1.398 4.002 6.045 6.045 0 001.058 3.69 3.8 3.8 0 003.017 1.438c.339 0 .766-.058.969-.078l.291-.272.475-2.428h1.717l.03 3.487zm1.319-.64l1.223-.068.302-.35V5.635l-.302-.281-1.223-.068V4.198h6.219v1.088l-1.087.068-.3.281V9.59h.843a1.66 1.66 0 001.078-.321c.332-.306.581-.69.728-1.117l.747-1.797a4.419 4.419 0 011.232-1.942 2.262 2.262 0 011.541-.544 1.947 1.947 0 011.525.583c.143.147.256.321.332.513.075.192.109.398.104.603a1.686 1.686 0 01-1.495 1.748l-1.522-1.3a2.79 2.79 0 00-.389.796l-.602 1.515c-.417 1.03-.815 1.476-1.377 1.71.606.11 1.168.39 1.621.806a5.064 5.064 0 011.241 1.748l1.164 2.525.349.291 1.31.107v1.088h-4.851v-.728l-1.523-3.37a3.403 3.403 0 00-.649-1.098 1.318 1.318 0 00-.971-.35h-.504v4.196l.3.35 1.087.067v1.088h-6.151V15.62zm19.918-11.422v1.088l-1.117.068-.3.282v6.876l4.958-6.362v-.514l-.302-.282-1.115-.068V4.198h6.179v1.088l-1.155.068-.29.282v9.566l.29.35 1.155.078v1.078h-6.179V15.63l1.115-.078.302-.35v-7.03l-4.958 6.361v.67l.3.35 1.117.078v1.078h-6.181V15.63l1.136-.078.311-.35V5.636l-.311-.282-1.136-.068V4.198h6.181zm15.531 0v1.088l-1.115.068-.302.281v6.867l4.958-6.361v-.515l-.302-.282-1.115-.068V4.198h6.179v1.088l-1.153.068-.302.281v9.567l.302.35 1.153.068v1.088h-6.179V15.62l1.115-.068.302-.35V8.17l-4.958 6.362v.67l.302.35 1.115.068v1.088h-6.179V15.62l1.134-.068.311-.35V5.635l-.311-.281-1.134-.068V4.198h6.179zm-.466-2.146a8.081 8.081 0 003.056 0V.449c.361-.31.825-.47 1.3-.447 1.115 0 1.562.651 1.562 1.273a1.675 1.675 0 01-1.037 1.515 10.608 10.608 0 01-6.706 0 1.7 1.7 0 01-.747-.597 1.706 1.706 0 01-.3-.909c0-.621.457-1.272 1.572-1.272.475-.021.94.138 1.3.447v1.593zm24.747 2.146v3.75h-1.754l-.293-2.264-.3-.213h-3.464v4.001c.534-.049 1.3-.107 1.862-.107 1.2-.07 2.393.22 3.427.836a3.215 3.215 0 011.415 2.913 3.3 3.3 0 01-1.125 2.632 5.45 5.45 0 01-3.513.972h-6.858V15.62l1.174-.068.302-.35V5.636l-.302-.282-1.174-.068V4.198h10.603zm-5.82 11.228c.285.017.57.017.855 0a2.379 2.379 0 001.843-.622c.207-.235.364-.51.46-.81.094-.3.127-.616.093-.928a2.44 2.44 0 00-.131-1.048 2.428 2.428 0 00-.558-.895 2.107 2.107 0 00-1.534-.485 4.65 4.65 0 00-1.028.106v4.682zM248.115 4.1l4.327 11.373 1.126.146v1.088h-6.035V15.62l1.271-.087.155-.243-.97-2.778h-4.007l-.97 2.758.185.224 1.192.126v1.088h-4.49V15.62l1.211-.068 4.26-11.451h2.745zm-3.667 7.168h2.979l-1.504-4.128-1.475 4.128zm15.561-7.07v1.087l-1.117.068-.3.282v3.817h4.656V5.636l-.29-.282-1.126-.068V4.198h6.18v1.088l-1.145.068-.3.282v9.566l.3.35 1.145.078v1.078h-6.18V15.63l1.126-.078.29-.35v-4.36h-4.656v4.36l.3.35 1.117.078v1.078h-6.181V15.63l1.136-.078.31-.35V5.636l-.31-.282-1.136-.068V4.198h6.181zm9.05 11.421l1.223-.068.311-.35V5.635l-.311-.281-1.223-.068V4.198h6.219v1.088l-1.077.068-.3.281V9.59h.833c.389.022.774-.091 1.087-.321.329-.307.576-.69.719-1.117l.745-1.797a4.455 4.455 0 011.232-1.942 2.29 2.29 0 011.544-.544 1.931 1.931 0 011.532.583c.284.3.439.702.428 1.116.019.428-.125.846-.402 1.17a1.675 1.675 0 01-1.092.579l-1.523-1.302a3.43 3.43 0 00-.389.797l-.601 1.515c-.408 1.03-.816 1.476-1.378 1.71a3.234 3.234 0 011.621.806 5.119 5.119 0 011.251 1.748l1.154 2.525.359.291 1.3.107v1.088h-4.851v-.728l-1.473-3.37a3.099 3.099 0 00-.651-1.098 1.28 1.28 0 00-.97-.35h-.504v4.196l.3.35 1.078.067v1.088h-6.219l.028-1.136z" fill="#FFFDD7"/><path fill-rule="evenodd" clip-rule="evenodd" d="M0 5.83h38.804v38.85H0V5.83zm2.406 2.32h34.245V42.9H2.406V8.15zm33.576.844H3.066v33.023h32.916V8.994zM6.83 15.96H4.084l-.048 23.096H6.78v1.593h27.66V10.636H6.829v5.323zm13.746 1.166h-2.202c-2.43 2.29-4.834 4.598-7.242 6.909l-.001.001-.001.001c-1.196 1.147-2.392 2.296-3.593 3.443 3.59 3.568 7.202 7.129 10.837 10.684h2.202c-1.808-1.79-3.62-3.575-5.43-5.358-1.803-1.777-3.605-3.552-5.397-5.326a2177.43 2177.43 0 0110.827-10.354zm12.359 4.323H21.701v2.467h.737c5.21 0 9.478 3.157 9.478 7.041 0 3.885-4.268 6.993-9.478 6.964a5.929 5.929 0 01-.737 0v.185h11.234V21.448zm-16.802-4.256H5.403v20.862h10.73A1501.367 1501.367 0 015.792 27.487a2097.38 2097.38 0 0110.34-10.295zm5.695 8.966c-1.504-.059-2.717 2.263-2.717 5.05 0 2.104.725 5.14 3.28 5.14 1.503 0 2.696-2.243 2.696-5.06 0-2.109-.696-5.13-3.26-5.13z" fill="#FFFDD7"/></svg>