<svg version="1.0" xmlns="http://www.w3.org/2000/svg" width="200" height="200" viewBox="0 0 150 150"><path d="M50 10.6c-13.5 5.7-25.2 10.8-26 11.2-.8.5-6.5 12.6-12.7 26.9L.1 74.7 11 101.4c5.9 14.7 11 26.9 11.2 27.1.1.1 7.3 3.1 15.8 6.5s20.3 8.2 26.2 10.7l10.8 4.5 25.7-10.7c14.2-5.9 26.3-11.2 27-11.8.6-.7 4.8-10.2 9.3-21.2 4.5-11 9.3-22.5 10.7-25.7l2.5-5.6-10.7-25.9c-5.9-14.2-11.2-26.3-11.9-26.9-1-1-52.2-22.6-52.8-22.3-.2.1-11.3 4.8-24.8 10.5zm51 1.5c13.5 5.6 25 10.6 25.7 11.3.6.6 5.9 12.4 11.6 26.3l10.5 25.2L138 101c-6 14.4-11 26.3-11.2 26.4-1.8 1.3-50.7 20.9-51.8 20.8-2.5-.1-51.4-20.3-52.2-21.6C21.4 124.4 2 76 2 74.8 2 72 23.6 23.1 25 22.7c.8-.3 12.1-5 25-10.6C62.9 6.6 74.2 2.1 75 2c.9 0 12.6 4.5 26 10.1z"/></svg>