<svg width="252" height="39" fill="none" xmlns="http://www.w3.org/2000/svg"><path d="M112.685 11.786l5.321-3.883h-17.642v23.021h17.642v-3.883h-12.601v-5.825h10.641v-3.883h-10.641v-5.547h7.28zm-21.982 0l5.32-3.883H75.862v23.021h10.501c5.881 0 9.242-2.635 9.242-7.212 0-4.437-3.08-6.795-8.681-6.795h-6.161v-5.131h9.941zm-4.48 8.876c3.22 0 4.62 1.109 4.62 3.19 0 2.08-1.54 3.189-4.62 3.189h-5.321v-6.38h5.32zm45.924-12.76h-9.521v23.022h5.041v-6.518h4.62c6.161 0 9.941-3.19 9.941-8.32 0-5.132-3.92-8.183-10.081-8.183zm0 12.62h-4.48v-8.875h4.48c3.221 0 5.041 1.526 5.041 4.438-.14 2.912-1.82 4.438-5.041 4.438zm-64.826 5.41c-1.4.693-2.8 1.109-4.341 1.109-4.48 0-7.84-3.19-7.84-7.628 0-4.437 3.22-7.627 7.84-7.627 1.68 0 3.22.555 4.62 1.387l3.64-2.635-.28-.278c-2.1-1.802-4.9-2.773-8.12-2.773-3.5 0-6.58 1.11-8.96 3.328-2.241 2.22-3.641 5.27-3.501 8.46 0 3.19 1.26 6.24 3.5 8.598 2.38 2.219 5.6 3.467 8.821 3.328 3.64 0 6.72-1.248 8.961-3.467l-3.22-2.357-1.12.554zm151.075-8.599h-10.781v-9.43h-5.04v23.021h5.04v-9.43h10.781v9.43h5.041V7.903h-5.041v9.43zm-34.023-9.43l-10.081 23.021h5.04l1.961-4.576h10.641l1.96 4.576h5.32l-9.801-23.021h-5.04zm-1.4 14.561l3.92-9.291 3.641 9.291h-7.561zm58.666-3.467l9.101-11.094h-5.741l-7.561 9.846h-2.8V7.903h-5.04v23.021h5.04v-9.292h3.22l7.701 9.292H252l-10.361-11.927zm-77.848-2.08h-6.161v-5.131h13.161V7.903h-18.202v23.021h10.502c5.88 0 9.241-2.635 9.241-7.212.14-4.437-2.941-6.795-8.541-6.795zm-.84 10.263h-5.321V20.8h5.321c3.22 0 4.62 1.11 4.62 3.19.14 2.08-1.54 3.19-4.62 3.19z" fill="#FFFDD7"/><path fill-rule="evenodd" clip-rule="evenodd" d="M19.113 0h-.004A19.17 19.17 0 005.838 5.369c-5.618 5.415-7.383 13.989-4.41 21.19 1.855 4.494 5.44 8.214 9.917 10.208a19.186 19.186 0 0015.085.19A19.295 19.295 0 0036.603 27a19.475 19.475 0 001.34-11.235l-4.119 3.047c0 2.205-.366 4.357-1.264 6.386a14.859 14.859 0 01-7.821 7.659 14.716 14.716 0 01-11.598-.148 14.862 14.862 0 01-7.627-7.851 14.898 14.898 0 01.145-11.642 14.853 14.853 0 017.82-7.656 14.688 14.688 0 0113.925 1.455l3.72-2.753A19.14 19.14 0 0019.113 0zM34.25 7.465a19.283 19.283 0 012.293 3.819l-17.43 12.898-7.285-4.584v-5.514l7.284 4.583L34.251 7.465z" fill="#FFFDD7"/></svg>