<svg width="316" height="39" fill="none" xmlns="http://www.w3.org/2000/svg"><path d="M19.475 31.095c-6.675 0-12.114-5.352-12.114-11.922S12.798 7.25 19.471 7.25h.76V0h-.758C8.742 0 0 8.605 0 19.172c0 10.636 8.74 19.241 19.475 19.241h.757v-7.315h-.757v-.003z" fill="#FF4B5F"/><path fill-rule="evenodd" clip-rule="evenodd" d="M23.397 10.369V.41c8.947 1.76 15.621 9.484 15.621 18.764 0 9.351-6.677 17.072-15.621 18.767v-9.958h-3.924c-4.953 0-8.944-3.931-8.944-8.806 0-4.877 3.991-8.808 8.946-8.808h3.922zM60.97 27.844a8.812 8.812 0 005.572-1.964l3.097 3.052c-2.27 2.03-5.298 3.25-8.67 3.25-7.294 0-13.143-5.895-13.143-13.008 0-7.113 5.849-12.94 13.144-12.94 3.277-.009 6.44 1.2 8.876 3.389l-3.097 3.046a8.701 8.701 0 00-5.78-2.165c-4.888 0-8.808 3.86-8.808 8.67 0 4.81 3.922 8.67 8.809 8.67zm135.911-9.077l9.703-11.515h3.854v23.845h-3.854V13.89l-9.703 11.244-9.84-11.516V31.1h-3.923V7.252h3.923v.135l.068-.135 9.772 11.515zm-111 13.347c7.225 0 13.144-5.76 13.144-12.94 0-7.113-5.919-12.94-13.144-12.94-7.225 0-13.142 5.827-13.142 12.94 0 7.113 5.849 12.94 13.142 12.94zm-.068-21.61c4.887 0 8.808 3.86 8.808 8.67 0 4.81-3.921 8.67-8.808 8.67-4.887 0-8.808-3.86-8.808-8.67 0-4.81 3.921-8.67 8.808-8.67zm80.171 21.61c7.225 0 13.144-5.76 13.144-12.94 0-7.113-5.851-12.94-13.144-12.94-7.226 0-13.144 5.827-13.144 12.94 0 7.113 5.849 12.94 13.144 12.94zm0-21.61c4.887 0 8.808 3.86 8.808 8.67 0 4.81-3.992 8.67-8.808 8.67-4.887 0-8.809-3.86-8.809-8.67 0-4.81 3.922-8.67 8.809-8.67zm-18.513-3.252h5.301l-11.975 11.99L152.633 31.1h-5.23l-9.979-9.962h-3.99V31.1h-3.854V7.252h3.854v10.026h4.061l9.976-10.026zm163.302 0H316l-11.905 11.99L315.863 31.1h-5.23l-9.908-9.962h-4.061V31.1h-3.854V7.252h3.854v10.026h4.061l10.048-10.026zm-47.484 23.845h-4.269l-2.336-5.146h-12.527l-2.338 5.149h-4.266l10.665-23.848h4.403l10.668 23.845zm-12.868-18.968l-4.541 10.027h9.083l-4.542-10.027zm-127.998 7.045a6.81 6.81 0 012.203 5.013c0 3.793-3.097 6.913-6.952 6.98H103.5V7.253h14.174a6.937 6.937 0 016.952 6.909c0 1.964-.896 3.728-2.203 5.013zm-4.817-8.06h-10.185v6.093h10.185c1.72 0 3.095-1.353 3.095-3.046 0-1.696-1.375-3.046-3.095-3.046zm-10.185 16.19h10.185c1.722 0 3.097-1.424 3.164-3.113 0-.805-.337-1.56-.886-2.119a3.104 3.104 0 00-2.21-.93h-10.253v6.163zm176.65-10.026V7.32h3.923v23.71h-3.923v-9.894h-14.106v9.894h-3.921V7.319h3.921v9.96h14.106zm-54.916 0c3.854 0 7.02 3.114 7.02 6.91 0 3.792-3.164 6.912-7.021 6.977h-14.107V7.252h18.788v3.86h-14.864v6.166h10.184zm-10.183 10.027h10.185c1.721 0 3.097-1.425 3.097-3.114 0-1.628-1.376-3.05-3.097-3.05h-10.185v6.164z" fill="#FFFDD7"/></svg>