<?xml version="1.0" encoding="utf-8"?><svg viewBox="0 0 1866.667 800" xmlns="http://www.w3.org/2000/svg" xmlns:xlink="http://www.w3.org/1999/xlink"><style>:root>svg{display:none}:root>svg:target{display:block}</style><svg version="1.0" viewBox="0 0 150 150" id="Oktagon" xmlns="http://www.w3.org/2000/svg"><path d="M50 10.6c-13.5 5.7-25.2 10.8-26 11.2-.8.5-6.5 12.6-12.7 26.9L.1 74.7 11 101.4c5.9 14.7 11 26.9 11.2 27.1.1.1 7.3 3.1 15.8 6.5s20.3 8.2 26.2 10.7l10.8 4.5 25.7-10.7c14.2-5.9 26.3-11.2 27-11.8.6-.7 4.8-10.2 9.3-21.2 4.5-11 9.3-22.5 10.7-25.7l2.5-5.6-10.7-25.9c-5.9-14.2-11.2-26.3-11.9-26.9-1-1-52.2-22.6-52.8-22.3-.2.1-11.3 4.8-24.8 10.5zm51 1.5c13.5 5.6 25 10.6 25.7 11.3.6.6 5.9 12.4 11.6 26.3l10.5 25.2L138 101c-6 14.4-11 26.3-11.2 26.4-1.8 1.3-50.7 20.9-51.8 20.8-2.5-.1-51.4-20.3-52.2-21.6C21.4 124.4 2 76 2 74.8 2 72 23.6 23.1 25 22.7c.8-.3 12.1-5 25-10.6C62.9 6.6 74.2 2.1 75 2c.9 0 12.6 4.5 26 10.1z"/></svg><svg version="1.0" viewBox="0 0 1400 254" id="Title-krepost" xmlns="http://www.w3.org/2000/svg"><path d="M707.7 8.5c-48.2 8.1-86.7 46.5-95.2 94.9C600.3 173.5 655.6 239 727 239c10.7 0 33.1-3.3 31.7-4.6-.2-.3-2.4 0-4.8.6-2.4.5-8.9 1.3-14.4 1.6-28.9 1.9-54.7-8.2-77.6-30.3-33.7-32.5-47-82.9-33.4-126.3 10.6-33.5 36.7-59.7 68-68.1 11.8-3.2 35.5-3.2 47.5 0 41.7 11.1 74.7 48.7 84.6 96.1 2.5 11.8 2.5 34.5.1 46-7.1 33.2-24.8 57.9-52.2 72.7-7.7 4.2-6.4 4.3 1.8.2 15.4-7.8 31.4-21.2 41.8-34.9 6.5-8.4 15.1-26.1 18.4-37.3 11.4-40-.1-84.1-29.6-113.6-26.4-26.4-64.7-38.7-101.2-32.6zm262.8.5c-24.4 3.8-47.3 15.6-65 33.5-14.6 14.7-24.6 32-30.2 52.1-2.6 9.2-2.8 11.2-2.8 28.9s.2 19.7 2.8 28.9c5.6 20.1 15.6 37.4 30.2 52.1 23.7 23.9 54.4 35.9 87.5 34.2 15.1-.8 26.1-3.6 39.5-10.2 36.4-17.9 58.6-53.5 61.9-99.5.3-4.2.2-6.6-.3-5.5-.4 1.1-1.1 6.3-1.4 11.5-1.1 17.4-8.1 38.2-18.3 54.7-6.3 10.2-22.5 26.4-31.9 31.9-8.4 4.8-17.7 8.7-26.5 11.1-9.8 2.6-34.8 2.3-45.2-.5-30.9-8.4-57.2-30.3-72.3-60.2-16.7-33.1-18.6-67.9-5.5-100.7 11.2-28.1 35.2-49.8 63.5-57.4 11.5-3.2 33.5-3.2 45.5-.2 34.9 8.8 63 33.8 78.7 70.2l2.4 5.6-.6-23.5c-.3-12.9-.6-29.4-.7-36.5-.2-10.6-.3-9-.8 8.3l-.5 21.3-4-5.2c-7.4-9.8-22.8-24.5-31.5-30.2-16.8-10.9-29.7-14.6-53-15.2-8.5-.2-18.2 0-21.5.5zM6 9.9l2.5.7.3 111.9c.2 104.4.1 112.1-1.5 113.3-1.4 1 .2 1.2 8.8 1.2 7.5-.1 9.9-.3 8.7-1.1C23.1 235 23 231 23 175v-59.8l2.7-3.4 2.7-3.3-2.7 2.4-2.7 2.4V9l-9.7.1c-5.6.1-8.7.4-7.3.8zm93 .1c3 .4 6.1.9 6.9 1.1.7.2 1.6-.2 1.8-.9.4-.9-1.4-1.2-6.9-1.1l-7.3.2 5.5.7zm63.9.1c2.5.5 4.8 1.4 5.3 2.1.4.7.8 51 .8 111.9 0 84.6-.3 110.8-1.2 111.7-.9.9 1.5 1.2 10.7 1 6.6 0 10.4-.3 8.5-.5-1.9-.3-3.8-1-4.2-1.6-.4-.7-.8-29.7-.8-64.5V107h22.3c24.3 0 29.8-.8 39.1-5.8 10.9-5.8 21.7-19.9 24.5-32.2 2.5-10.8.6-24.5-4.7-34.4-3.5-6.6-13.4-16.4-19.8-19.8-10.1-5.4-13.8-5.8-50.9-5.7-22.2.1-32.5.4-29.6 1zm55.2.9c17.6 3.3 32.7 17.7 37.4 35.7 6.8 25.9-11 53-38.2 58.3-7.4 1.5-28.8.9-31.9-.8-1.2-.6-2.4-2.6-2.8-4.3-1.1-5.5-.7-81.3.5-84.6.5-1.7 2-3.5 3.2-4.1 2.8-1.4 24.8-1.5 31.8-.2zm73.5-1.1C300.9 11 300-1 300 124.1c0 104.5-.1 110.9-1.7 111.8-1.3.7 17.2 1 59 1.1H418l-.1-12.8-.2-12.7-.7 8.5c-.9 10.2-2.3 13.6-6.3 15-1.9.6-19.5 1-49.2 1-38 0-46.5-.2-47.4-1.4-1.8-2.1-1.1-146 .7-147.8 1-1 7.2-1.4 25.2-1.6l23.9-.3 1.3 2.3c.7 1.3 1.5 6.3 1.9 11.3.4 5.9.6 1.2.6-14 0-17-.2-20.7-.7-14-.9 10.6-1.5 12.3-4.4 13.1-1.2.3-11.9.4-23.9.2-19.2-.3-21.8-.5-23.4-2.1-1.7-1.6-1.8-4.5-1.8-35.2 0-26.1.3-33.7 1.3-34.7 1.7-1.7 88.3-2.5 92.6-.8 3.1 1.2 4.6 4.4 5.6 12.5.7 5.6.7 5.2.9-4.3L414 9l-63.7.1c-35.1.1-61.5.5-58.7.8zM449 9.7c4.1 1.5 4-.8 4 113.7 0 60.6-.4 110.6-.8 111.2-.4.6-1.4 1.4-2.2 1.7-.8.3 3.5.5 9.5.6 7.5 0 10.3-.3 8.8-.9l-2.3-.9v-110c0-106.7.1-109.9 1.9-112.2l1.9-2.4 41.9-.3c23-.1 42.8 0 44.1.3l2.2.5v112.4c0 89-.3 112.5-1.2 112.9-.7.3 4.1.5 10.7.5s10.4-.3 8.5-.7l-3.5-.6-.3-113.3L572 9l-62.3.1c-34.2 0-61.5.3-60.7.6zm676.1 6.5c.1 7.2.1 7.2.9 2.5 1.5-8.9.9-8.7 28.2-8.7h23.8v111.7c0 61.5-.4 112.3-.8 112.9-.4.6-1.4 1.4-2.2 1.7-.8.3 3.7.5 10 .5s10.8-.2 10-.5c-3.9-1.4-4-2.4-4-43.7 0-22.1.3-72.2.7-111.4l.6-71.2h21.8c12 0 22.9.4 24.3 1 4 1.5 5 4.6 5.6 18l.7 12.5.1-16.3.2-16.2h-120l.1 7.2zm153.8-6.1c2.5.5 4.8 1.4 5.3 2.1.4.7.8 51 .8 111.9 0 84.6-.3 110.8-1.2 111.7-2 2 61.7 1.6 70.1-.3 9-2.2 15.6-6 23.1-13.5 12.6-12.6 18.3-27.9 18.3-49.5.1-11.7-.2-13.8-2.7-21-3.9-11.5-8-18-16-26-12.5-12.4-25.6-17.6-43.7-17.3l-10.4.1 11.5.6c10.1.6 12.3 1 18.3 3.9 12.8 6 22.7 19 27.4 36.2 2.6 9.4 2.6 43.2 0 54.2-2.5 10.7-6.8 18.8-12.8 24.2-8.3 7.4-11.5 8.1-39.6 8.1-23.9 0-24.3 0-26.5-2.3l-2.3-2.3-.3-53.7c-.2-29.5 0-56.1.3-59 .7-6.1 3.2-9.2 7.1-9.2 1.4 0 2.3-.4 1.9-1-.3-.6-1.9-1-3.4-1-5.7 0-5.6.8-5.9-50.7l-.3-47.3-11.7.1c-9.6.1-10.9.3-7.3 1zM77.4 47.2l-1.9 2.3 2.3-1.9c2.1-1.8 2.7-2.6 1.9-2.6-.2 0-1.2 1-2.3 2.2zm-4 5-1.9 2.3 2.3-1.9c1.2-1.1 2.2-2.1 2.2-2.3 0-.8-.8-.2-2.6 1.9zm-6.1 7.5c-2.1 2.7-7 8.5-10.7 13.1-3.8 4.5-6.3 8.1-5.6 8 .9-.2 11.8 25.8 31.6 75.2 16.7 41.5 30.3 76.3 30.4 77.2 0 .9-1.2 2.1-2.8 2.6-2.1.8.1 1.1 9.3 1.1 10.1.1 11.6-.1 9.6-1.2-1.9-1-8-15.8-34.7-84.2-17.8-45.7-32.2-83.5-32-84 .2-.6 2.5-3.6 5-6.8 2.6-3.1 4.5-5.7 4.2-5.7-.2 0-2.2 2.1-4.3 4.7zM46.4 85.2l-1.9 2.3 2.3-1.9c2.1-1.8 2.7-2.6 1.9-2.6-.2 0-1.2 1-2.3 2.2zm-4 5-1.9 2.3 2.3-1.9c2.1-1.8 2.7-2.6 1.9-2.6-.2 0-1.2 1-2.3 2.2zm-4 5-1.9 2.3 2.3-1.9c2.1-1.8 2.7-2.6 1.9-2.6-.2 0-1.2 1-2.3 2.2z"/><path d="M32 103c-2.3 2.7-4 5-3.7 5 .3 0 2.4-2.3 4.7-5 2.3-2.8 4-5 3.7-5-.3 0-2.4 2.2-4.7 5zm744 7.9c0 2.7-.4 6.1-1 7.5l-1 2.6-47.7-.2-47.7-.3-.7-2.5c-.4-1.6-.7-.1-.7 4 0 3.6.3 5.6.5 4.5 1.2-4.6.1-4.5 49.4-4.5 35.6 0 47 .3 47.5 1.2.4.7 1.1 2.8 1.5 4.8.4 2.1.7-1.5.8-9.3 0-7-.1-12.7-.4-12.7-.3 0-.5 2.2-.5 4.9zM767 231c-.8.5-1 1-.5 1 .6 0 1.7-.5 2.5-1s1.1-1 .5-1c-.5 0-1.7.5-2.5 1z"/></svg><svg viewBox="0 0 24 24" fill="none" id="before-svg" xmlns="http://www.w3.org/2000/svg"><path d="M6 12h12m0 0-5-5m5 5-5 5" stroke="#000" stroke-width="2" stroke-linecap="round" stroke-linejoin="round"/></svg><svg fill="none" viewBox="0 0 283 51" id="kk-bank" xmlns="http://www.w3.org/2000/svg"><path d="m74.737 41.047.446 3.652.35.37h.252a2.114 2.114 0 0 0 1.426-.7c.48-.568.836-1.23 1.047-1.943l-6.373-13.83-1.28-.311v-1.777h7.266v1.777l-1.038.126-.253.457 3.823 8.41 2.628-8.167-.203-.544-1.184-.282v-1.777h5.18v1.777l-1.115.282-4.424 13.005a11.543 11.543 0 0 1-2.376 4.574 4.462 4.462 0 0 1-3.338 1.38 7.261 7.261 0 0 1-3.123-.797v-5.682h2.29zm28.502-14.54v6.168h-2.348l-.397-3.72-.398-.36h-4.647v6.596c.83-.112 1.666-.173 2.503-.185a6.904 6.904 0 0 1 4.589 1.38 5.75 5.75 0 0 1 1.94 4.73 6.047 6.047 0 0 1-1.504 4.321 6.413 6.413 0 0 1-4.715 1.661h-8.818v-1.777l1.164-.127.398-.582V28.868l-.398-.457-1.164-.126v-1.777h13.795zm-7.76 18.454c.38.046.761.065 1.144.059a2.84 2.84 0 0 0 2.474-.972 4.267 4.267 0 0 0 .756-2.855 4.647 4.647 0 0 0-.97-3.225 2.532 2.532 0 0 0-2.066-.796 4.986 4.986 0 0 0-1.377.184l.038 7.605zm21.535-18.453 5.821 18.56 1.116.253v1.777h-7.276v-1.777l1.29-.156.194-.398-1.319-4.575h-5.316l-1.252 4.546.252.36 1.174.223v1.777h-5.18v-1.777l1.203-.127 5.723-18.687h3.57zm-4.928 11.655h4.007l-2.028-6.8-1.979 6.8zm22.342-11.655v1.777l-1.077.126-.407.457v6.293h6.238v-6.293l-.398-.457-1.087-.126v-1.777h7.471v1.777l-1.146.126-.388.457v15.744l.388.582 1.146.127v1.777h-7.471v-1.777l1.087-.127.398-.582v-7.178h-6.238v7.178l.407.582 1.077.127v1.777h-7.46v-1.777l1.106-.127.427-.582V28.868l-.427-.457-1.106-.126v-1.777h7.46zm21.818 0v1.777l-1.271.126-.427.457v5.827a21.817 21.817 0 0 1 2.658-.184 5.81 5.81 0 0 1 4.713 1.724 5.826 5.826 0 0 1 1.621 4.754 6.21 6.21 0 0 1-1.504 4.448 6.386 6.386 0 0 1-4.714 1.661h-8.73v-1.777l1.155-.127.407-.582V28.868l-.407-.457-1.155-.126v-1.777h7.654zm-1.698 18.453c.31 0 .708.059 1.155.059a2.908 2.908 0 0 0 2.473-.972 4.688 4.688 0 0 0 .747-2.913 5.656 5.656 0 0 0-.873-3.41 2.567 2.567 0 0 0-2.125-.854 4.678 4.678 0 0 0-1.377.184v7.906zm38.117.36 1.182-.127.485-.582V28.868l-.33-.457-1.337-.126v-1.777h7.663c2.823 0 4.141.699 4.715 1.107 1.677 1.127 2.27 2.914 2.27 5.118a7.003 7.003 0 0 1-1.747 5.128 7.25 7.25 0 0 1-5.336 1.875 11.703 11.703 0 0 1-1.473-.097v4.973l.367.582 1.436.127v1.777h-7.895v-1.777zm6.11-7.77h.204a3.512 3.512 0 0 0 2.6-.865 5.451 5.451 0 0 0 1.068-3.652 7.078 7.078 0 0 0-.602-3.04 2.428 2.428 0 0 0-2.251-1.408h-1.019v8.965zm11.252 7.77 1.272-.127.398-.582V28.868l-.398-.457-1.272-.126v-1.777h12.913v5.118h-1.736l-.398-2.7-.349-.33h-4.424v6.77h2.63l.368-.418.252-2.215h1.776v7.547h-1.776l-.252-2.205-.368-.427h-2.63v7.362h5.19l.358-.495.399-3.37h1.737v5.953h-13.69v-1.777zm33.479-18.813v1.777l-1.135.126-.406.457V44.64l.309.369h1.427v5.37h-2.087l-.649-2.748-.349-.495h-11.031l-.349.495-.649 2.749h-2.066v-5.37h.834a34.588 34.588 0 0 0 3.452-8.042 46.687 46.687 0 0 0 1.534-7.955l-.398-.456-1.698-.243v-1.806h13.261zm-5.984 18.453V28.596h-2.794a50.533 50.533 0 0 1-1.853 9.596 36.189 36.189 0 0 1-2.911 6.798l7.558-.029zm16.831-18.453v1.777l-1.087.126-.398.457v11.325l6.645-10.461v-.864l-.406-.457-1.087-.126v-1.777h7.47v1.777l-1.145.126-.398.457v15.744l.398.582 1.145.127v1.777h-7.47v-1.777l1.087-.127.406-.582V33.044l-6.645 10.47v1.098l.398.582 1.087.127v1.777h-7.47v-1.777l1.116-.127.416-.582V28.868l-.416-.457-1.116-.126v-1.777h7.47zm28.647 0v5.235h-1.679l-.532-2.788-.447-.36h-2.378v16.017l.485.582 1.263.127v1.777h-7.926v-1.777l1.26-.127.487-.582V28.596h-2.427l-.435.36-.497 2.787h-1.686v-5.235H283zM67.335 45.194l-.397-.796-4.153-10.674 4.085-5.313 1.038-.126v-1.777H62.33v1.777l.504.282.204.553-5.54 7.022v-7.274l.398-.457 1.038-.126v-1.777h-7.518v1.777l1.232.126.407.457v15.744l-.407.582-1.232.127v1.777h7.518v-1.777l-1.038-.127-.398-.582V40.59l1.98-2.565 3.599 9.072h5.296V45.32l-1.038-.127zm121.613 0-.408-.796-4.141-10.674 4.083-5.313 1.445-.126v-1.777h-5.985v1.777l.504.282.204.553-5.549 7.022v-7.274l.408-.457 1.037-.126v-1.777h-7.518v1.777l1.232.126.408.457v15.744l-.408.582-1.232.127v1.777h7.518v-1.777l-1.037-.127-.408-.582V40.59l1.979-2.565 3.61 9.072h5.703V45.32l-1.445-.127zM51.416 15.62l1.232-.068.29-.35V5.635l-.29-.281-1.232-.068V4.198h6.218v1.088l-1.077.068-.3.281V9.59h.834c.388.022.772-.091 1.086-.321.328-.309.578-.692.728-1.117l.747-1.797a4.341 4.341 0 0 1 1.232-1.942 2.25 2.25 0 0 1 1.543-.544 1.941 1.941 0 0 1 1.523.583c.284.3.438.702.426 1.116a1.681 1.681 0 0 1-1.494 1.749L61.36 6.014c-.159.25-.29.517-.388.797l-.591 1.515a2.69 2.69 0 0 1-1.378 1.71 3.298 3.298 0 0 1 1.62.806 5.25 5.25 0 0 1 1.252 1.748l1.144 2.525.35.291 1.319.107v1.088h-4.85v-.728l-1.495-3.37a3.226 3.226 0 0 0-.65-1.098 1.29 1.29 0 0 0-.97-.35h-.504v4.196l.3.35 1.077.067v1.088h-6.18V15.62zM76.24 5.257a6.643 6.643 0 0 1 2.49 5.018 6.651 6.651 0 0 1-2.229 5.141 7.425 7.425 0 0 1-4.734 1.583 7.058 7.058 0 0 1-4.433-1.437 6.447 6.447 0 0 1-2.309-5.187 6.231 6.231 0 0 1 2.309-5.07 7.533 7.533 0 0 1 4.627-1.398 7.086 7.086 0 0 1 4.279 1.32v.03zm-6.422 1.175a7.03 7.03 0 0 0-1.068 4.08 6.485 6.485 0 0 0 1.106 4.02 2.543 2.543 0 0 0 2.067 1.078 2.48 2.48 0 0 0 1.988-.971 7.234 7.234 0 0 0 1.116-4.235 6.476 6.476 0 0 0-.97-3.885 2.62 2.62 0 0 0-2.183-1.156 2.499 2.499 0 0 0-2.056 1.069zm10.08 9.198 1.309-.078.223-.35V5.636l-.223-.282-1.31-.068V4.198h6.015v.544l2.58 7.809 2.542-7.828v-.525h6.034v1.088l-1.387.068-.233.282v9.566l.233.35 1.387.078v1.078h-6.034V15.63l1.164-.078.165-.35V5.578h-.039l-3.647 11.131h-1.882l-3.658-11.13h-.029v9.625l.223.35 1.223.077v1.078h-4.657V15.63zm18.12 0 1.31-.078.214-.35V5.636l-.214-.282-1.31-.068V4.198h6.015v.544l2.571 7.809 2.551-7.828v-.525h6.034v1.088l-1.396.068-.224.282v9.566l.224.35 1.396.078v1.078h-6.034V15.63l1.155-.078.165-.35V5.578h-.029l-3.658 11.131h-1.872l-3.657-11.13h-.039v9.625l.233.35 1.222.077v1.078H98.02V15.63zm18.209 0 1.242-.078.301-.35V5.636l-.301-.282-1.242-.068V4.198h10.245v3.108h-1.601l-.301-1.632-.262-.203h-3.288v4.118h1.95l.281-.263.184-1.35h1.329v4.594h-1.329l-.184-1.35-.281-.252h-1.95v4.477h3.871l.262-.3.29-2.05h1.601v3.613h-10.817V15.63zm11.981-.01 1.184-.068.359-.35V5.635l-.243-.281-1.3-.068V4.198h6.025a6.975 6.975 0 0 1 3.521.67 3.237 3.237 0 0 1 1.698 3.108 3.886 3.886 0 0 1-1.31 3.118 6.204 6.204 0 0 1-3.987 1.136c-.366 0-.732-.019-1.096-.058v3.03l.281.35 1.378.068v1.088h-6.51V15.62zm4.851-4.71h.155a2.966 2.966 0 0 0 1.94-.525 2.856 2.856 0 0 0 .805-2.214 3.582 3.582 0 0 0-.446-1.846 1.865 1.865 0 0 0-1.678-.855h-.767l-.009 5.44zm12.738-6.712v1.088l-.97.068-.302.282v2.496a2.552 2.552 0 0 0 .389 1.66 1.817 1.817 0 0 0 1.504.574 6.23 6.23 0 0 0 2.124-.428V5.636l-.31-.282-.971-.068V4.198h6.103v1.088l-1.154.068-.302.282v9.566l.302.35 1.154.068v1.088h-6.431V15.62l1.386-.068.272-.35v-3.884a13.565 13.565 0 0 1-3.134.427 4.409 4.409 0 0 1-3.356-1.107 3.497 3.497 0 0 1-.689-2.555V5.636l-.32-.282-1.019-.068V4.198h5.724zm8.537 11.432 1.241-.078.291-.35V5.636l-.291-.282-1.241-.068V4.198h10.235v3.108h-1.611l-.291-1.632-.262-.203h-3.298v4.118h1.959l.281-.263.185-1.35h1.318v4.594h-1.318l-.185-1.35-.281-.252h-1.959v4.477h3.879l.253-.3.302-2.05h1.609v3.613h-10.816V15.63zm23.33.63a12.25 12.25 0 0 1-4.007.71 7.003 7.003 0 0 1-5.141-1.768 6.491 6.491 0 0 1-1.619-2.456 6.488 6.488 0 0 1-.364-2.919 6.507 6.507 0 0 1 .966-2.779 6.461 6.461 0 0 1 2.094-2.063 7.506 7.506 0 0 1 4.162-1.03 10.89 10.89 0 0 1 3.879.748v3.38h-1.717l-.445-2.302-.321-.291a3.51 3.51 0 0 0-.969-.117 3.679 3.679 0 0 0-2.677 1.049 5.487 5.487 0 0 0-1.398 4.002 6.045 6.045 0 0 0 1.058 3.69 3.8 3.8 0 0 0 3.017 1.438c.339 0 .766-.058.969-.078l.291-.272.475-2.428h1.717l.03 3.487zm1.319-.64 1.223-.068.302-.35V5.635l-.302-.281-1.223-.068V4.198h6.219v1.088l-1.087.068-.3.281V9.59h.843a1.66 1.66 0 0 0 1.078-.321c.332-.306.581-.69.728-1.117l.747-1.797a4.419 4.419 0 0 1 1.232-1.942 2.262 2.262 0 0 1 1.541-.544 1.947 1.947 0 0 1 1.525.583c.143.147.256.321.332.513.075.192.109.398.104.603a1.686 1.686 0 0 1-1.495 1.748l-1.522-1.3a2.79 2.79 0 0 0-.389.796l-.602 1.515c-.417 1.03-.815 1.476-1.377 1.71.606.11 1.168.39 1.621.806a5.064 5.064 0 0 1 1.241 1.748l1.164 2.525.349.291 1.31.107v1.088h-4.851v-.728l-1.523-3.37a3.403 3.403 0 0 0-.649-1.098 1.318 1.318 0 0 0-.971-.35h-.504v4.196l.3.35 1.087.067v1.088h-6.151V15.62zm19.918-11.422v1.088l-1.117.068-.3.282v6.876l4.958-6.362v-.514l-.302-.282-1.115-.068V4.198h6.179v1.088l-1.155.068-.29.282v9.566l.29.35 1.155.078v1.078h-6.179V15.63l1.115-.078.302-.35v-7.03l-4.958 6.361v.67l.3.35 1.117.078v1.078h-6.181V15.63l1.136-.078.311-.35V5.636l-.311-.282-1.136-.068V4.198h6.181zm15.531 0v1.088l-1.115.068-.302.281v6.867l4.958-6.361v-.515l-.302-.282-1.115-.068V4.198h6.179v1.088l-1.153.068-.302.281v9.567l.302.35 1.153.068v1.088h-6.179V15.62l1.115-.068.302-.35V8.17l-4.958 6.362v.67l.302.35 1.115.068v1.088h-6.179V15.62l1.134-.068.311-.35V5.635l-.311-.281-1.134-.068V4.198h6.179zm-.466-2.146a8.081 8.081 0 0 0 3.056 0V.449c.361-.31.825-.47 1.3-.447 1.115 0 1.562.651 1.562 1.273a1.675 1.675 0 0 1-1.037 1.515 10.608 10.608 0 0 1-6.706 0 1.7 1.7 0 0 1-.747-.597 1.706 1.706 0 0 1-.3-.909c0-.621.457-1.272 1.572-1.272.475-.021.94.138 1.3.447v1.593zm24.747 2.146v3.75h-1.754l-.293-2.264-.3-.213h-3.464v4.001c.534-.049 1.3-.107 1.862-.107 1.2-.07 2.393.22 3.427.836a3.215 3.215 0 0 1 1.415 2.913 3.3 3.3 0 0 1-1.125 2.632 5.45 5.45 0 0 1-3.513.972h-6.858V15.62l1.174-.068.302-.35V5.636l-.302-.282-1.174-.068V4.198h10.603zm-5.82 11.228c.285.017.57.017.855 0a2.379 2.379 0 0 0 1.843-.622c.207-.235.364-.51.46-.81.094-.3.127-.616.093-.928a2.44 2.44 0 0 0-.131-1.048 2.428 2.428 0 0 0-.558-.895 2.107 2.107 0 0 0-1.534-.485 4.65 4.65 0 0 0-1.028.106v4.682zM248.115 4.1l4.327 11.373 1.126.146v1.088h-6.035V15.62l1.271-.087.155-.243-.97-2.778h-4.007l-.97 2.758.185.224 1.192.126v1.088h-4.49V15.62l1.211-.068 4.26-11.451h2.745zm-3.667 7.168h2.979l-1.504-4.128-1.475 4.128zm15.561-7.07v1.087l-1.117.068-.3.282v3.817h4.656V5.636l-.29-.282-1.126-.068V4.198h6.18v1.088l-1.145.068-.3.282v9.566l.3.35 1.145.078v1.078h-6.18V15.63l1.126-.078.29-.35v-4.36h-4.656v4.36l.3.35 1.117.078v1.078h-6.181V15.63l1.136-.078.31-.35V5.636l-.31-.282-1.136-.068V4.198h6.181zm9.05 11.421 1.223-.068.311-.35V5.635l-.311-.281-1.223-.068V4.198h6.219v1.088l-1.077.068-.3.281V9.59h.833c.389.022.774-.091 1.087-.321.329-.307.576-.69.719-1.117l.745-1.797a4.455 4.455 0 0 1 1.232-1.942 2.29 2.29 0 0 1 1.544-.544 1.931 1.931 0 0 1 1.532.583c.284.3.439.702.428 1.116.019.428-.125.846-.402 1.17a1.675 1.675 0 0 1-1.092.579l-1.523-1.302a3.43 3.43 0 0 0-.389.797l-.601 1.515c-.408 1.03-.816 1.476-1.378 1.71a3.234 3.234 0 0 1 1.621.806 5.119 5.119 0 0 1 1.251 1.748l1.154 2.525.359.291 1.3.107v1.088h-4.851v-.728l-1.473-3.37a3.099 3.099 0 0 0-.651-1.098 1.28 1.28 0 0 0-.97-.35h-.504v4.196l.3.35 1.078.067v1.088h-6.219l.028-1.136z" fill="#FFFDD7"/><path fill-rule="evenodd" clip-rule="evenodd" d="M0 5.83h38.804v38.85H0V5.83zm2.406 2.32h34.245V42.9H2.406V8.15zm33.576.844H3.066v33.023h32.916V8.994zM6.83 15.96H4.084l-.048 23.096H6.78v1.593h27.66V10.636H6.829v5.323zm13.746 1.166h-2.202c-2.43 2.29-4.834 4.598-7.242 6.909l-.001.001-.001.001c-1.196 1.147-2.392 2.296-3.593 3.443 3.59 3.568 7.202 7.129 10.837 10.684h2.202c-1.808-1.79-3.62-3.575-5.43-5.358-1.803-1.777-3.605-3.552-5.397-5.326a2177.43 2177.43 0 0 1 10.827-10.354zm12.359 4.323H21.701v2.467h.737c5.21 0 9.478 3.157 9.478 7.041 0 3.885-4.268 6.993-9.478 6.964a5.929 5.929 0 0 1-.737 0v.185h11.234V21.448zm-16.802-4.256H5.403v20.862h10.73A1501.367 1501.367 0 0 1 5.792 27.487a2097.38 2097.38 0 0 1 10.34-10.295zm5.695 8.966c-1.504-.059-2.717 2.263-2.717 5.05 0 2.104.725 5.14 3.28 5.14 1.503 0 2.696-2.243 2.696-5.06 0-2.109-.696-5.13-3.26-5.13z" fill="#FFFDD7"/></svg><svg fill="none" viewBox="0 0 252 39" id="sberbank" xmlns="http://www.w3.org/2000/svg"><path d="m112.685 11.786 5.321-3.883h-17.642v23.021h17.642v-3.883h-12.601v-5.825h10.641v-3.883h-10.641v-5.547h7.28zm-21.982 0 5.32-3.883H75.862v23.021h10.501c5.881 0 9.242-2.635 9.242-7.212 0-4.437-3.08-6.795-8.681-6.795h-6.161v-5.131h9.941zm-4.48 8.876c3.22 0 4.62 1.109 4.62 3.19 0 2.08-1.54 3.189-4.62 3.189h-5.321v-6.38h5.32zm45.924-12.76h-9.521v23.022h5.041v-6.518h4.62c6.161 0 9.941-3.19 9.941-8.32 0-5.132-3.92-8.183-10.081-8.183zm0 12.62h-4.48v-8.875h4.48c3.221 0 5.041 1.526 5.041 4.438-.14 2.912-1.82 4.438-5.041 4.438zm-64.826 5.41c-1.4.693-2.8 1.109-4.341 1.109-4.48 0-7.84-3.19-7.84-7.628 0-4.437 3.22-7.627 7.84-7.627 1.68 0 3.22.555 4.62 1.387l3.64-2.635-.28-.278c-2.1-1.802-4.9-2.773-8.12-2.773-3.5 0-6.58 1.11-8.96 3.328-2.241 2.22-3.641 5.27-3.501 8.46 0 3.19 1.26 6.24 3.5 8.598 2.38 2.219 5.6 3.467 8.821 3.328 3.64 0 6.72-1.248 8.961-3.467l-3.22-2.357-1.12.554zm151.075-8.599h-10.781v-9.43h-5.04v23.021h5.04v-9.43h10.781v9.43h5.041V7.903h-5.041v9.43zm-34.023-9.43-10.081 23.021h5.04l1.961-4.576h10.641l1.96 4.576h5.32l-9.801-23.021h-5.04zm-1.4 14.561 3.92-9.291 3.641 9.291h-7.561zm58.666-3.467 9.101-11.094h-5.741l-7.561 9.846h-2.8V7.903h-5.04v23.021h5.04v-9.292h3.22l7.701 9.292H252l-10.361-11.927zm-77.848-2.08h-6.161v-5.131h13.161V7.903h-18.202v23.021h10.502c5.88 0 9.241-2.635 9.241-7.212.14-4.437-2.941-6.795-8.541-6.795zm-.84 10.263h-5.321V20.8h5.321c3.22 0 4.62 1.11 4.62 3.19.14 2.08-1.54 3.19-4.62 3.19z" fill="#FFFDD7"/><path fill-rule="evenodd" clip-rule="evenodd" d="M19.113 0h-.004A19.17 19.17 0 0 0 5.838 5.369c-5.618 5.415-7.383 13.989-4.41 21.19 1.855 4.494 5.44 8.214 9.917 10.208a19.186 19.186 0 0 0 15.085.19A19.295 19.295 0 0 0 36.603 27a19.475 19.475 0 0 0 1.34-11.235l-4.119 3.047c0 2.205-.366 4.357-1.264 6.386a14.859 14.859 0 0 1-7.821 7.659 14.716 14.716 0 0 1-11.598-.148 14.862 14.862 0 0 1-7.627-7.851 14.898 14.898 0 0 1 .145-11.642 14.853 14.853 0 0 1 7.82-7.656 14.688 14.688 0 0 1 13.925 1.455l3.72-2.753A19.14 19.14 0 0 0 19.113 0zM34.25 7.465a19.283 19.283 0 0 1 2.293 3.819l-17.43 12.898-7.285-4.584v-5.514l7.284 4.583L34.251 7.465z" fill="#FFFDD7"/></svg><svg fill="none" viewBox="0 0 316 39" id="sovcombank" xmlns="http://www.w3.org/2000/svg"><path d="M19.475 31.095c-6.675 0-12.114-5.352-12.114-11.922S12.798 7.25 19.471 7.25h.76V0h-.758C8.742 0 0 8.605 0 19.172c0 10.636 8.74 19.241 19.475 19.241h.757v-7.315h-.757v-.003z" fill="#FF4B5F"/><path fill-rule="evenodd" clip-rule="evenodd" d="M23.397 10.369V.41c8.947 1.76 15.621 9.484 15.621 18.764 0 9.351-6.677 17.072-15.621 18.767v-9.958h-3.924c-4.953 0-8.944-3.931-8.944-8.806 0-4.877 3.991-8.808 8.946-8.808h3.922zM60.97 27.844a8.812 8.812 0 0 0 5.572-1.964l3.097 3.052c-2.27 2.03-5.298 3.25-8.67 3.25-7.294 0-13.143-5.895-13.143-13.008 0-7.113 5.849-12.94 13.144-12.94 3.277-.009 6.44 1.2 8.876 3.389l-3.097 3.046a8.701 8.701 0 0 0-5.78-2.165c-4.888 0-8.808 3.86-8.808 8.67 0 4.81 3.922 8.67 8.809 8.67zm135.911-9.077 9.703-11.515h3.854v23.845h-3.854V13.89l-9.703 11.244-9.84-11.516V31.1h-3.923V7.252h3.923v.135l.068-.135 9.772 11.515zm-111 13.347c7.225 0 13.144-5.76 13.144-12.94 0-7.113-5.919-12.94-13.144-12.94-7.225 0-13.142 5.827-13.142 12.94 0 7.113 5.849 12.94 13.142 12.94zm-.068-21.61c4.887 0 8.808 3.86 8.808 8.67 0 4.81-3.921 8.67-8.808 8.67-4.887 0-8.808-3.86-8.808-8.67 0-4.81 3.921-8.67 8.808-8.67zm80.171 21.61c7.225 0 13.144-5.76 13.144-12.94 0-7.113-5.851-12.94-13.144-12.94-7.226 0-13.144 5.827-13.144 12.94 0 7.113 5.849 12.94 13.144 12.94zm0-21.61c4.887 0 8.808 3.86 8.808 8.67 0 4.81-3.992 8.67-8.808 8.67-4.887 0-8.809-3.86-8.809-8.67 0-4.81 3.922-8.67 8.809-8.67zm-18.513-3.252h5.301l-11.975 11.99L152.633 31.1h-5.23l-9.979-9.962h-3.99V31.1h-3.854V7.252h3.854v10.026h4.061l9.976-10.026zm163.302 0H316l-11.905 11.99L315.863 31.1h-5.23l-9.908-9.962h-4.061V31.1h-3.854V7.252h3.854v10.026h4.061l10.048-10.026zm-47.484 23.845h-4.269l-2.336-5.146h-12.527l-2.338 5.149h-4.266l10.665-23.848h4.403l10.668 23.845zm-12.868-18.968-4.541 10.027h9.083l-4.542-10.027zm-127.998 7.045a6.81 6.81 0 0 1 2.203 5.013c0 3.793-3.097 6.913-6.952 6.98H103.5V7.253h14.174a6.937 6.937 0 0 1 6.952 6.909c0 1.964-.896 3.728-2.203 5.013zm-4.817-8.06h-10.185v6.093h10.185c1.72 0 3.095-1.353 3.095-3.046 0-1.696-1.375-3.046-3.095-3.046zm-10.185 16.19h10.185c1.722 0 3.097-1.424 3.164-3.113 0-.805-.337-1.56-.886-2.119a3.104 3.104 0 0 0-2.21-.93h-10.253v6.163zm176.65-10.026V7.32h3.923v23.71h-3.923v-9.894h-14.106v9.894h-3.921V7.319h3.921v9.96h14.106zm-54.916 0c3.854 0 7.02 3.114 7.02 6.91 0 3.792-3.164 6.912-7.021 6.977h-14.107V7.252h18.788v3.86h-14.864v6.166h10.184zm-10.183 10.027h10.185c1.721 0 3.097-1.425 3.097-3.114 0-1.628-1.376-3.05-3.097-3.05h-10.185v6.164z" fill="#FFFDD7"/></svg><svg fill="none" viewBox="0 0 133 48" id="vtb" xmlns="http://www.w3.org/2000/svg"><path d="M9.183 0 6.885 6.32h31.836L41.019 0H9.183zM5.737 9.477 3.44 15.795h31.836l2.298-6.318H5.737zm-3.439 9.477L0 25.27h31.836l2.295-6.319c.002.002-31.833.002-31.833.002zm64.63 8.3v.131c1.43.527 2.796 1.448 3.51 2.04 2.21 1.843 3.188 4.277 3.188 7.436 0 5.2-2.732 8.95-7.22 10.136-1.366.395-2.796.526-5.462.526H47.356V9.484h12.03c2.472 0 4.161.132 5.656.525 4.357 1.186 7.22 4.213 7.22 9.017 0 2.567-.91 4.74-2.406 6.187-.65.657-1.56 1.447-2.926 2.04h-.002zm-12.03 4.014v10.004h5.203c1.56 0 2.992-.132 4.031-1.119 1.041-.987 1.495-2.238 1.495-3.883 0-1.248-.325-2.434-.975-3.29-1.105-1.382-2.472-1.712-4.811-1.712h-4.944.002zm-.066-6.582h4.227c1.3 0 1.95 0 2.6-.197 1.757-.527 2.862-2.104 2.862-4.277 0-2.566-1.17-3.686-2.862-4.211-.716-.198-1.43-.263-2.86-.263h-3.967v8.95-.002zM84.94 47.524V15.868H74.08V9.486h30.174l-2.146 6.382h-9.625v31.656H84.94zm21.656 0V9.486h24.451l-2.146 6.382h-14.826v8.426h6.049c4.877 0 7.413 1.185 9.17 2.697C130.66 28.177 133 30.808 133 36.01c0 5.133-2.405 7.962-4.423 9.411-2.34 1.643-4.811 2.106-9.82 2.106h-12.161v-.002zm7.478-6.385h5.657c2.146 0 3.446-.526 4.356-1.712.454-.59 1.105-1.646 1.105-3.62 0-1.972-.651-3.356-1.951-4.343-.779-.59-1.821-.919-3.577-.919h-5.593v10.594h.003z" fill="#FFFDD7"/></svg></svg>