<svg version="1.0" xmlns="http://www.w3.org/2000/svg" width="1866.667" height="338.667" viewBox="0 0 1400 254"><path d="M707.7 8.5c-48.2 8.1-86.7 46.5-95.2 94.9C600.3 173.5 655.6 239 727 239c10.7 0 33.1-3.3 31.7-4.6-.2-.3-2.4 0-4.8.6-2.4.5-8.9 1.3-14.4 1.6-28.9 1.9-54.7-8.2-77.6-30.3-33.7-32.5-47-82.9-33.4-126.3 10.6-33.5 36.7-59.7 68-68.1 11.8-3.2 35.5-3.2 47.5 0 41.7 11.1 74.7 48.7 84.6 96.1 2.5 11.8 2.5 34.5.1 46-7.1 33.2-24.8 57.9-52.2 72.7-7.7 4.2-6.4 4.3 1.8.2 15.4-7.8 31.4-21.2 41.8-34.9 6.5-8.4 15.1-26.1 18.4-37.3 11.4-40-.1-84.1-29.6-113.6-26.4-26.4-64.7-38.7-101.2-32.6zm262.8.5c-24.4 3.8-47.3 15.6-65 33.5-14.6 14.7-24.6 32-30.2 52.1-2.6 9.2-2.8 11.2-2.8 28.9s.2 19.7 2.8 28.9c5.6 20.1 15.6 37.4 30.2 52.1 23.7 23.9 54.4 35.9 87.5 34.2 15.1-.8 26.1-3.6 39.5-10.2 36.4-17.9 58.6-53.5 61.9-99.5.3-4.2.2-6.6-.3-5.5-.4 1.1-1.1 6.3-1.4 11.5-1.1 17.4-8.1 38.2-18.3 54.7-6.3 10.2-22.5 26.4-31.9 31.9-8.4 4.8-17.7 8.7-26.5 11.1-9.8 2.6-34.8 2.3-45.2-.5-30.9-8.4-57.2-30.3-72.3-60.2-16.7-33.1-18.6-67.9-5.5-100.7 11.2-28.1 35.2-49.8 63.5-57.4 11.5-3.2 33.5-3.2 45.5-.2 34.9 8.8 63 33.8 78.7 70.2l2.4 5.6-.6-23.5c-.3-12.9-.6-29.4-.7-36.5-.2-10.6-.3-9-.8 8.3l-.5 21.3-4-5.2c-7.4-9.8-22.8-24.5-31.5-30.2-16.8-10.9-29.7-14.6-53-15.2-8.5-.2-18.2 0-21.5.5zM6 9.9l2.5.7.3 111.9c.2 104.4.1 112.1-1.5 113.3-1.4 1 .2 1.2 8.8 1.2 7.5-.1 9.9-.3 8.7-1.1C23.1 235 23 231 23 175v-59.8l2.7-3.4 2.7-3.3-2.7 2.4-2.7 2.4V9l-9.7.1c-5.6.1-8.7.4-7.3.8zm93 .1c3 .4 6.1.9 6.9 1.1.7.2 1.6-.2 1.8-.9.4-.9-1.4-1.2-6.9-1.1l-7.3.2 5.5.7zm63.9.1c2.5.5 4.8 1.4 5.3 2.1.4.7.8 51 .8 111.9 0 84.6-.3 110.8-1.2 111.7-.9.9 1.5 1.2 10.7 1 6.6 0 10.4-.3 8.5-.5-1.9-.3-3.8-1-4.2-1.6-.4-.7-.8-29.7-.8-64.5V107h22.3c24.3 0 29.8-.8 39.1-5.8 10.9-5.8 21.7-19.9 24.5-32.2 2.5-10.8.6-24.5-4.7-34.4-3.5-6.6-13.4-16.4-19.8-19.8-10.1-5.4-13.8-5.8-50.9-5.7-22.2.1-32.5.4-29.6 1zm55.2.9c17.6 3.3 32.7 17.7 37.4 35.7 6.8 25.9-11 53-38.2 58.3-7.4 1.5-28.8.9-31.9-.8-1.2-.6-2.4-2.6-2.8-4.3-1.1-5.5-.7-81.3.5-84.6.5-1.7 2-3.5 3.2-4.1 2.8-1.4 24.8-1.5 31.8-.2zm73.5-1.1C300.9 11 300-1 300 124.1c0 104.5-.1 110.9-1.7 111.8-1.3.7 17.2 1 59 1.1H418l-.1-12.8-.2-12.7-.7 8.5c-.9 10.2-2.3 13.6-6.3 15-1.9.6-19.5 1-49.2 1-38 0-46.5-.2-47.4-1.4-1.8-2.1-1.1-146 .7-147.8 1-1 7.2-1.4 25.2-1.6l23.9-.3 1.3 2.3c.7 1.3 1.5 6.3 1.9 11.3.4 5.9.6 1.2.6-14 0-17-.2-20.7-.7-14-.9 10.6-1.5 12.3-4.4 13.1-1.2.3-11.9.4-23.9.2-19.2-.3-21.8-.5-23.4-2.1-1.7-1.6-1.8-4.5-1.8-35.2 0-26.1.3-33.7 1.3-34.7 1.7-1.7 88.3-2.5 92.6-.8 3.1 1.2 4.6 4.4 5.6 12.5.7 5.6.7 5.2.9-4.3L414 9l-63.7.1c-35.1.1-61.5.5-58.7.8zM449 9.7c4.1 1.5 4-.8 4 113.7 0 60.6-.4 110.6-.8 111.2-.4.6-1.4 1.4-2.2 1.7-.8.3 3.5.5 9.5.6 7.5 0 10.3-.3 8.8-.9l-2.3-.9v-110c0-106.7.1-109.9 1.9-112.2l1.9-2.4 41.9-.3c23-.1 42.8 0 44.1.3l2.2.5v112.4c0 89-.3 112.5-1.2 112.9-.7.3 4.1.5 10.7.5s10.4-.3 8.5-.7l-3.5-.6-.3-113.3L572 9l-62.3.1c-34.2 0-61.5.3-60.7.6zm676.1 6.5c.1 7.2.1 7.2.9 2.5 1.5-8.9.9-8.7 28.2-8.7h23.8v111.7c0 61.5-.4 112.3-.8 112.9-.4.6-1.4 1.4-2.2 1.7-.8.3 3.7.5 10 .5s10.8-.2 10-.5c-3.9-1.4-4-2.4-4-43.7 0-22.1.3-72.2.7-111.4l.6-71.2h21.8c12 0 22.9.4 24.3 1 4 1.5 5 4.6 5.6 18l.7 12.5.1-16.3.2-16.2h-120l.1 7.2zm153.8-6.1c2.5.5 4.8 1.4 5.3 2.1.4.7.8 51 .8 111.9 0 84.6-.3 110.8-1.2 111.7-2 2 61.7 1.6 70.1-.3 9-2.2 15.6-6 23.1-13.5 12.6-12.6 18.3-27.9 18.3-49.5.1-11.7-.2-13.8-2.7-21-3.9-11.5-8-18-16-26-12.5-12.4-25.6-17.6-43.7-17.3l-10.4.1 11.5.6c10.1.6 12.3 1 18.3 3.9 12.8 6 22.7 19 27.4 36.2 2.6 9.4 2.6 43.2 0 54.2-2.5 10.7-6.8 18.8-12.8 24.2-8.3 7.4-11.5 8.1-39.6 8.1-23.9 0-24.3 0-26.5-2.3l-2.3-2.3-.3-53.7c-.2-29.5 0-56.1.3-59 .7-6.1 3.2-9.2 7.1-9.2 1.4 0 2.3-.4 1.9-1-.3-.6-1.9-1-3.4-1-5.7 0-5.6.8-5.9-50.7l-.3-47.3-11.7.1c-9.6.1-10.9.3-7.3 1zM77.4 47.2l-1.9 2.3 2.3-1.9c2.1-1.8 2.7-2.6 1.9-2.6-.2 0-1.2 1-2.3 2.2zm-4 5l-1.9 2.3 2.3-1.9c1.2-1.1 2.2-2.1 2.2-2.3 0-.8-.8-.2-2.6 1.9zm-6.1 7.5c-2.1 2.7-7 8.5-10.7 13.1-3.8 4.5-6.3 8.1-5.6 8 .9-.2 11.8 25.8 31.6 75.2 16.7 41.5 30.3 76.3 30.4 77.2 0 .9-1.2 2.1-2.8 2.6-2.1.8.1 1.1 9.3 1.1 10.1.1 11.6-.1 9.6-1.2-1.9-1-8-15.8-34.7-84.2-17.8-45.7-32.2-83.5-32-84 .2-.6 2.5-3.6 5-6.8 2.6-3.1 4.5-5.7 4.2-5.7-.2 0-2.2 2.1-4.3 4.7zM46.4 85.2l-1.9 2.3 2.3-1.9c2.1-1.8 2.7-2.6 1.9-2.6-.2 0-1.2 1-2.3 2.2zm-4 5l-1.9 2.3 2.3-1.9c2.1-1.8 2.7-2.6 1.9-2.6-.2 0-1.2 1-2.3 2.2zm-4 5l-1.9 2.3 2.3-1.9c2.1-1.8 2.7-2.6 1.9-2.6-.2 0-1.2 1-2.3 2.2z"/><path d="M32 103c-2.3 2.7-4 5-3.7 5 .3 0 2.4-2.3 4.7-5 2.3-2.8 4-5 3.7-5-.3 0-2.4 2.2-4.7 5zm744 7.9c0 2.7-.4 6.1-1 7.5l-1 2.6-47.7-.2-47.7-.3-.7-2.5c-.4-1.6-.7-.1-.7 4 0 3.6.3 5.6.5 4.5 1.2-4.6.1-4.5 49.4-4.5 35.6 0 47 .3 47.5 1.2.4.7 1.1 2.8 1.5 4.8.4 2.1.7-1.5.8-9.3 0-7-.1-12.7-.4-12.7-.3 0-.5 2.2-.5 4.9zM767 231c-.8.5-1 1-.5 1 .6 0 1.7-.5 2.5-1s1.1-1 .5-1c-.5 0-1.7.5-2.5 1z"/></svg>