<svg width="133" height="48" fill="none" xmlns="http://www.w3.org/2000/svg"><path d="M9.183 0L6.885 6.32h31.836L41.019 0H9.183zM5.737 9.477L3.44 15.795h31.836l2.298-6.318H5.737zm-3.439 9.477L0 25.27h31.836l2.295-6.319c.002.002-31.833.002-31.833.002zm64.63 8.3v.131c1.43.527 2.796 1.448 3.51 2.04 2.21 1.843 3.188 4.277 3.188 7.436 0 5.2-2.732 8.95-7.22 10.136-1.366.395-2.796.526-5.462.526H47.356V9.484h12.03c2.472 0 4.161.132 5.656.525 4.357 1.186 7.22 4.213 7.22 9.017 0 2.567-.91 4.74-2.406 6.187-.65.657-1.56 1.447-2.926 2.04h-.002zm-12.03 4.014v10.004h5.203c1.56 0 2.992-.132 4.031-1.119 1.041-.987 1.495-2.238 1.495-3.883 0-1.248-.325-2.434-.975-3.29-1.105-1.382-2.472-1.712-4.811-1.712h-4.944.002zm-.066-6.582h4.227c1.3 0 1.95 0 2.6-.197 1.757-.527 2.862-2.104 2.862-4.277 0-2.566-1.17-3.686-2.862-4.211-.716-.198-1.43-.263-2.86-.263h-3.967v8.95-.002zM84.94 47.524V15.868H74.08V9.486h30.174l-2.146 6.382h-9.625v31.656H84.94zm21.656 0V9.486h24.451l-2.146 6.382h-14.826v8.426h6.049c4.877 0 7.413 1.185 9.17 2.697C130.66 28.177 133 30.808 133 36.01c0 5.133-2.405 7.962-4.423 9.411-2.34 1.643-4.811 2.106-9.82 2.106h-12.161v-.002zm7.478-6.385h5.657c2.146 0 3.446-.526 4.356-1.712.454-.59 1.105-1.646 1.105-3.62 0-1.972-.651-3.356-1.951-4.343-.779-.59-1.821-.919-3.577-.919h-5.593v10.594h.003z" fill="#FFFDD7"/></svg>