<svg width="283" height="51" viewBox="0 0 283 51" fill="none" xmlns="http://www.w3.org/2000/svg">
<path d="M74.7371 41.0472L75.1833 44.699L75.5325 45.0681H75.7847C76.3328 45.0294 76.8443 44.7785 77.2109 44.3689C77.6906 43.801 78.0474 43.1396 78.2585 42.4263L71.885 28.5957L70.6045 28.285V26.5075H77.8705V28.285L76.8326 28.4111L76.5803 28.8677L80.4026 37.2787L83.0314 29.1106L82.8279 28.5666L81.6443 28.285V26.5075H86.8246V28.285L85.709 28.5666L81.2853 41.5716C80.8478 43.2565 80.0354 44.8205 78.9085 46.1463C78.4789 46.5962 77.9603 46.9513 77.3856 47.1888C76.8109 47.4264 76.1928 47.5409 75.5714 47.5254C74.4837 47.4974 73.4162 47.2252 72.4476 46.729V41.0472H74.7371ZM103.239 26.5075V32.6749H100.891L100.494 28.9551L100.096 28.5957H95.4491V35.1906C96.279 35.0793 97.1148 35.0177 97.9519 35.006C99.5969 34.9029 101.224 35.3921 102.541 36.3851C103.207 36.9699 103.729 37.7013 104.066 38.522C104.402 39.3427 104.545 40.2303 104.481 41.1152C104.565 42.6976 104.025 44.2497 102.977 45.4372C102.342 46.0156 101.598 46.4604 100.788 46.7456C99.978 47.0309 99.1192 47.1508 98.2625 47.0981H89.4442V45.3207L90.6083 45.1945L91.006 44.6116V28.8677L90.6083 28.4111L89.4442 28.285V26.5075H103.239ZM95.4781 44.9614C95.8581 45.0065 96.2405 45.026 96.623 45.0196C97.0831 45.0717 97.5491 45.0105 97.9802 44.8413C98.4113 44.6718 98.7945 44.3998 99.0968 44.0483C99.6807 43.2172 99.9492 42.2046 99.8533 41.1929C99.9444 40.0344 99.5984 38.8837 98.8834 37.9683C98.6217 37.6875 98.2996 37.4699 97.9417 37.332C97.5837 37.1941 97.1992 37.1393 96.8169 37.1718C96.3515 37.1688 95.8877 37.2307 95.4395 37.3563L95.4781 44.9614ZM117.014 26.5075L122.835 45.0681L123.951 45.3207V47.0981H116.675V45.3207L117.965 45.1652L118.159 44.767L116.84 40.1925H111.524L110.272 44.7379L110.524 45.0972L111.698 45.3207V47.0981H106.518V45.3207L107.721 45.1945L113.444 26.5075H117.014ZM112.086 38.1625H116.093L114.065 31.3639L112.086 38.1625ZM134.428 26.5075V28.285L133.351 28.4111L132.944 28.8677V35.1615H139.182V28.8677L138.784 28.4111L137.697 28.285V26.5075H145.168V28.285L144.022 28.4111L143.634 28.8677V44.6116L144.022 45.1945L145.168 45.3207V47.0981H137.697V45.3207L138.784 45.1945L139.182 44.6116V37.4342H132.944V44.6116L133.351 45.1945L134.428 45.3207V47.0981H126.968V45.3207L128.074 45.1945L128.501 44.6116V28.8677L128.074 28.4111L126.968 28.285V26.5075H134.428ZM156.246 26.5075V28.285L154.975 28.4111L154.548 28.8677V34.6953C155.429 34.5797 156.316 34.5181 157.206 34.5107C158.071 34.428 158.942 34.54 159.757 34.8383C160.572 35.1367 161.312 35.6138 161.919 36.2351C162.527 36.8562 162.987 37.6055 163.268 38.4279C163.548 39.2505 163.642 40.1257 163.54 40.9889C163.64 42.6114 163.1 44.2083 162.036 45.4372C161.402 46.0163 160.659 46.4619 159.848 46.7473C159.038 47.0326 158.18 47.1519 157.322 47.0981H148.592V45.3207L149.747 45.1945L150.154 44.6116V28.8677L149.747 28.4111L148.592 28.285V26.5075H156.246ZM154.548 44.9614C154.858 44.9614 155.256 45.0196 155.703 45.0196C156.161 45.0659 156.625 45.002 157.056 44.8331C157.486 44.6643 157.871 44.3953 158.176 44.0483C158.738 43.1855 159.001 42.1617 158.923 41.1345C159.003 39.9341 158.695 38.74 158.05 37.7254C157.786 37.4283 157.457 37.1966 157.088 37.0483C156.72 36.9 156.322 36.8392 155.925 36.8707C155.459 36.8633 154.995 36.9257 154.548 37.0553V44.9614ZM192.665 45.3207L193.847 45.1945L194.332 44.6116V28.8677L194.002 28.4111L192.665 28.285V26.5075H200.328C203.151 26.5075 204.469 27.2068 205.043 27.6148C206.72 28.7415 207.313 30.5286 207.313 32.7333C207.377 33.6613 207.254 34.5927 206.954 35.4733C206.654 36.3537 206.182 37.1656 205.566 37.8614C204.847 38.5156 204.005 39.0184 203.088 39.3404C202.171 39.6625 201.2 39.797 200.23 39.736C199.738 39.7347 199.245 39.7022 198.757 39.6389V44.6116L199.124 45.1945L200.56 45.3207V47.0981H192.665V45.3207ZM198.775 37.5507H198.979C199.449 37.5877 199.921 37.5305 200.366 37.382C200.813 37.2336 201.224 36.9969 201.579 36.6862C202.362 35.6373 202.741 34.3406 202.647 33.0344C202.673 31.9889 202.468 30.9504 202.045 29.9944C201.847 29.566 201.528 29.2047 201.128 28.9546C200.728 28.7045 200.266 28.5764 199.794 28.5861H198.775V37.5507ZM210.027 45.3207L211.299 45.1945L211.697 44.6116V28.8677L211.299 28.4111L210.027 28.285V26.5075H222.94V31.626H221.204L220.806 28.9261L220.457 28.5957H216.033V35.3653H218.663L219.031 34.9476L219.283 32.7333H221.059V40.28H219.283L219.031 38.0751L218.663 37.6478H216.033V45.0099H221.223L221.581 44.5145L221.98 41.1443H223.717V47.0981H210.027V45.3207ZM243.506 26.5075V28.285L242.371 28.4111L241.965 28.8677V44.6409L242.274 45.0099H243.701V50.3808H241.614L240.965 47.6323L240.616 47.137H229.585L229.236 47.6323L228.587 50.3808H226.521V45.0099H227.355C228.841 42.4862 230.002 39.784 230.807 36.968C231.549 34.3659 232.06 31.7042 232.341 29.0133L231.943 28.557L230.245 28.3141V26.5075H243.506ZM237.522 44.9614V28.5957H234.728C234.422 31.8468 233.801 35.0606 232.875 38.1916C232.139 40.5518 231.164 42.83 229.964 44.9905L237.522 44.9614ZM254.353 26.5075V28.285L253.266 28.4111L252.868 28.8677V40.1925L259.513 29.732V28.8677L259.107 28.4111L258.02 28.285V26.5075H265.49V28.285L264.345 28.4111L263.947 28.8677V44.6116L264.345 45.1945L265.49 45.3207V47.0981H258.02V45.3207L259.107 45.1945L259.513 44.6116V33.044L252.868 43.5141V44.6116L253.266 45.1945L254.353 45.3207V47.0981H246.883V45.3207L247.999 45.1945L248.415 44.6116V28.8677L247.999 28.4111L246.883 28.285V26.5075H254.353ZM283 26.5075V31.7426H281.321L280.789 28.9551L280.342 28.5957H277.964V44.6116L278.449 45.1945L279.712 45.3207V47.0981H271.786V45.3207L273.046 45.1945L273.533 44.6116V28.5957H271.106L270.671 28.9551L270.174 31.7426H268.488V26.5075H283ZM67.3353 45.1945L66.9376 44.3979L62.7854 33.724L66.8697 28.4111L67.9077 28.285V26.5075H62.3296V28.285L62.8339 28.5666L63.0377 29.1202L57.4984 36.1424V28.8677L57.8961 28.4111L58.9342 28.285V26.5075H51.4158V28.285L52.6478 28.4111L53.0553 28.8677V44.6116L52.6478 45.1945L51.4158 45.3207V47.0981H58.9342V45.3207L57.8961 45.1945L57.4984 44.6116V40.5907L59.4773 38.0265L63.0765 47.0981H68.3733V45.3207L67.3353 45.1945ZM188.948 45.1945L188.54 44.3979L184.399 33.724L188.482 28.4111L189.927 28.285V26.5075H183.942V28.285L184.446 28.5666L184.65 29.1202L179.101 36.1424V28.8677L179.509 28.4111L180.546 28.285V26.5075H173.028V28.285L174.26 28.4111L174.668 28.8677V44.6116L174.26 45.1945L173.028 45.3207V47.0981H180.546V45.3207L179.509 45.1945L179.101 44.6116V40.5907L181.08 38.0265L184.69 47.0981H190.393V45.3207L188.948 45.1945ZM51.4158 15.62L52.6478 15.552L52.9389 15.2023V5.63549L52.6478 5.35385L51.4158 5.28585V4.19804H57.6343V5.28585L56.5573 5.35385L56.2566 5.63549V9.58855H57.0909C57.4792 9.61103 57.8633 9.4977 58.1774 9.26801C58.5055 8.95918 58.7549 8.57611 58.9051 8.15111L59.652 6.35421C59.8807 5.60753 60.3063 4.9366 60.884 4.41186C61.3119 4.04334 61.8625 3.84916 62.4266 3.86786C62.7075 3.8486 62.9892 3.89072 63.2522 3.99121C63.5152 4.09189 63.7531 4.24866 63.9497 4.45059C64.234 4.75168 64.3876 5.15325 64.3764 5.56749C64.3963 5.99456 64.2527 6.41314 63.9752 6.73784C63.6976 7.06273 63.3069 7.26938 62.8824 7.31584L61.3595 6.0144C61.2001 6.26411 61.0699 6.53138 60.9714 6.81075L60.3795 8.32583C60.2829 8.6919 60.1103 9.03322 59.873 9.3277C59.6356 9.62236 59.3389 9.86338 59.0021 10.0353C59.6066 10.1477 60.1677 10.4268 60.6222 10.8415C61.1553 11.3314 61.5815 11.9266 61.8736 12.5896L63.0182 15.1149L63.3675 15.4063L64.6868 15.5132V16.6011H59.8364V15.8725L58.3423 12.5024C58.2008 12.0968 57.9799 11.7236 57.6924 11.4047C57.5633 11.2829 57.4107 11.1888 57.2437 11.1288C57.0767 11.0685 56.8994 11.0436 56.7222 11.0551H56.2177V15.2509L56.5185 15.6005L57.5954 15.6685V16.7563H51.4158V15.62ZM76.2406 5.25657C76.996 5.86102 77.6103 6.62319 78.0406 7.49019C78.471 8.357 78.7068 9.30748 78.7319 10.2754C78.7568 11.243 78.5702 12.2045 78.1852 13.0924C77.8001 13.9804 77.2258 14.7734 76.5024 15.416C75.154 16.4743 73.4815 17.0336 71.7684 16.999C70.1708 17.0359 68.6079 16.5291 67.3349 15.5616C66.5803 14.9309 65.9799 14.1355 65.5798 13.2366C65.1796 12.3375 64.9902 11.3586 65.0262 10.3751C64.9911 9.40854 65.1817 8.4471 65.5824 7.56706C65.9831 6.68703 66.5833 5.91259 67.3349 5.30512C68.6822 4.34311 70.3083 3.85162 71.9624 3.90659C73.4936 3.87278 74.9944 4.33631 76.2406 5.22749V5.25657ZM69.8185 6.43184C69.0537 7.64999 68.6813 9.07402 68.7512 10.5111C68.6671 11.9368 69.0559 13.3505 69.8572 14.5322C70.0908 14.8637 70.4004 15.1347 70.7598 15.3221C71.1192 15.5097 71.5182 15.6084 71.9237 15.6101C72.3074 15.6132 72.6868 15.527 73.0319 15.3585C73.377 15.1901 73.6785 14.9437 73.9124 14.6389C74.7127 13.3769 75.1025 11.8973 75.028 10.4044C75.1231 9.03907 74.7835 7.67889 74.0579 6.5193C73.817 6.16173 73.4917 5.86933 73.111 5.66779C72.7302 5.46605 72.3057 5.3616 71.875 5.36349C71.4716 5.36235 71.0739 5.45906 70.7158 5.64512C70.3577 5.83117 70.0498 6.1011 69.8185 6.43184ZM79.8982 15.6298L81.2078 15.5522L81.431 15.2025V5.63567L81.2078 5.35404L79.8982 5.28604V4.19823H85.9129V4.74204L88.4933 12.5509L91.035 4.72259V4.19823H97.0692V5.28604L95.6819 5.35404L95.4491 5.63567V15.2025L95.6819 15.5522L97.0692 15.6298V16.708H91.035V15.6298L92.1991 15.5522L92.364 15.2025V5.57731H92.3253L88.6776 16.708H86.7957L83.1384 5.57731H83.1094V15.2025L83.3323 15.5522L84.5547 15.6298V16.708H79.8982V15.6298ZM98.0197 15.6298L99.3292 15.5522L99.5426 15.2025V5.63567L99.3292 5.35404L98.0197 5.28604V4.19823H104.034V4.74204L106.605 12.5509L109.156 4.72259V4.19823H115.19V5.28604L113.794 5.35404L113.57 5.63567V15.2025L113.794 15.5522L115.19 15.6298V16.708H109.156V15.6298L110.311 15.5522L110.476 15.2025V5.57731H110.447L106.789 16.708H104.917L101.26 5.57731H101.221V15.2025L101.454 15.5522L102.676 15.6298V16.708H98.0197V15.6298ZM116.228 15.6298L117.47 15.5522L117.771 15.2025V5.63567L117.47 5.35404L116.228 5.28604V4.19823H126.473V7.30621H124.872L124.571 5.6744L124.309 5.47059H121.021V9.58855H122.971L123.252 9.32637L123.436 7.97638H124.765V12.5704H123.436L123.252 11.2204L122.971 10.9678H121.021V15.4452H124.892L125.154 15.1442L125.444 13.0949H127.045V16.708H116.228V15.6298ZM128.209 15.62L129.393 15.552L129.752 15.2023V5.63549L129.509 5.35385L128.209 5.28585V4.19804H134.234C135.446 4.11096 136.66 4.34197 137.755 4.86822C138.309 5.16477 138.765 5.61679 139.067 6.16891C139.368 6.72103 139.502 7.34908 139.453 7.97638C139.483 8.56118 139.381 9.14542 139.155 9.68526C138.928 10.2253 138.582 10.7068 138.143 11.094C136.983 11.9189 135.576 12.3201 134.156 12.2304C133.79 12.2305 133.424 12.2111 133.06 12.1722V15.2023L133.341 15.552L134.719 15.62V16.7078H128.209V15.62ZM133.06 10.9095H133.215C133.903 10.9657 134.589 10.7803 135.155 10.3849C135.439 10.0946 135.658 9.74665 135.797 9.36472C135.935 8.98297 135.991 8.57573 135.96 8.17056C135.98 7.52645 135.826 6.88895 135.514 6.32512C135.335 6.04632 135.086 5.82003 134.791 5.66986C134.496 5.5197 134.166 5.45075 133.836 5.4704H133.069L133.06 10.9095ZM145.798 4.19823V5.28604L144.828 5.35404L144.526 5.63567V8.13165C144.462 8.71362 144.598 9.30012 144.915 9.79255C145.105 9.99693 145.339 10.1547 145.6 10.254C145.86 10.3534 146.141 10.3915 146.419 10.3656C147.147 10.3481 147.866 10.2036 148.543 9.93819V5.63567L148.233 5.35404L147.262 5.28604V4.19823H153.365V5.28604L152.211 5.35404L151.909 5.63567V15.2025L152.211 15.5522L153.365 15.6202V16.708H146.934V15.6202L148.32 15.5522L148.592 15.2025V11.3175C147.568 11.5815 146.517 11.7249 145.458 11.7447C144.853 11.8018 144.241 11.7326 143.664 11.5422C143.087 11.3516 142.555 11.0438 142.102 10.6376C141.547 9.90929 141.299 8.99204 141.413 8.08311V5.63567L141.093 5.35404L140.074 5.28604V4.19823H145.798ZM154.335 15.6298L155.576 15.5522L155.867 15.2025V5.63567L155.576 5.35404L154.335 5.28604V4.19823H164.57V7.30621H162.959L162.668 5.6744L162.406 5.47059H159.108V9.58855H161.067L161.348 9.32637L161.533 7.97638H162.851V12.5704H161.533L161.348 11.2204L161.067 10.9678H159.108V15.4452H162.987L163.24 15.1442L163.542 13.0949H165.151V16.708H154.335V15.6298ZM177.665 16.2609C176.379 16.7189 175.024 16.9586 173.658 16.97C172.728 17.0332 171.792 16.9093 170.909 16.6058C170.026 16.3022 169.213 15.8251 168.517 15.2021C167.796 14.5189 167.244 13.6786 166.898 12.7464C166.555 11.8142 166.43 10.8154 166.534 9.82712C166.64 8.83904 166.97 7.88817 167.5 7.04837C168.03 6.20857 168.747 5.50232 169.594 4.98457C170.853 4.24394 172.298 3.88619 173.756 3.95513C175.085 3.96609 176.4 4.21958 177.635 4.70294V8.08292H175.918L175.473 5.78112L175.152 5.48966C174.835 5.4058 174.509 5.36651 174.183 5.37312C173.688 5.35952 173.198 5.44527 172.738 5.62547C172.277 5.80567 171.858 6.07654 171.506 6.42202C171.019 6.963 170.645 7.5954 170.406 8.28238C170.166 8.96937 170.064 9.69716 170.108 10.4236C170.051 11.7362 170.421 13.032 171.166 14.1143C171.526 14.5686 171.985 14.9345 172.507 15.1836C173.03 15.4328 173.604 15.5588 174.183 15.5518C174.522 15.5518 174.949 15.4936 175.152 15.4741L175.443 15.2021L175.918 12.7742H177.635L177.665 16.2609ZM178.984 15.62L180.207 15.552L180.509 15.2023V5.63549L180.207 5.35385L178.984 5.28585V4.19804H185.203V5.28585L184.116 5.35385L183.816 5.63549V9.58855H184.659C185.046 9.61027 185.425 9.49694 185.737 9.26801C186.069 8.96163 186.318 8.578 186.465 8.15111L187.212 6.35421C187.444 5.60942 187.869 4.93924 188.444 4.41186C188.872 4.04485 189.421 3.85105 189.985 3.86786C190.267 3.8486 190.548 3.89072 190.812 3.99121C191.074 4.09189 191.312 4.24866 191.51 4.45059C191.653 4.59754 191.766 4.77226 191.842 4.96436C191.917 5.15627 191.951 5.3616 191.946 5.56749C191.963 5.994 191.819 6.41125 191.542 6.73557C191.265 7.0599 190.876 7.26711 190.451 7.31584L188.929 6.0144C188.757 6.2575 188.627 6.52647 188.54 6.81075L187.938 8.32583C187.521 9.35546 187.123 9.80218 186.561 10.0353C187.167 10.1456 187.729 10.4251 188.182 10.8415C188.716 11.3286 189.138 11.9247 189.423 12.5896L190.587 15.1149L190.936 15.4063L192.246 15.5132V16.6011H187.395V15.8725L185.872 12.5024C185.727 12.0985 185.506 11.7262 185.223 11.4047C185.093 11.2842 184.94 11.1913 184.773 11.1312C184.607 11.0711 184.429 11.0453 184.252 11.0551H183.748V15.2509L184.048 15.6005L185.135 15.6685V16.7563H178.984V15.62ZM198.902 4.19823V5.28604L197.785 5.35404L197.485 5.63567V12.512L202.443 6.1504V5.63567L202.141 5.35404L201.026 5.28604V4.19823H207.205V5.28604L206.05 5.35404L205.76 5.63567V15.2025L206.05 15.5522L207.205 15.6298V16.708H201.026V15.6298L202.141 15.5522L202.443 15.2025V8.17056L197.485 14.5323V15.2025L197.785 15.5522L198.902 15.6298V16.708H192.721V15.6298L193.857 15.5522L194.168 15.2025V5.63567L193.857 5.35404L192.721 5.28604V4.19823H198.902ZM214.433 4.19804V5.28585L213.318 5.35385L213.016 5.63549V12.5022L217.974 6.14058V5.62585L217.672 5.34403L216.557 5.27622V4.19804H222.736V5.28585L221.583 5.35385L221.281 5.63549V15.2023L221.583 15.552L222.736 15.62V16.7078H216.557V15.62L217.672 15.552L217.974 15.2023V8.17037L213.016 14.5322V15.2023L213.318 15.552L214.433 15.62V16.7078H208.254V15.62L209.388 15.552L209.699 15.2023V5.63549L209.388 5.35385L208.254 5.28585V4.19804H214.433ZM213.967 2.05151C214.976 2.24587 216.014 2.24587 217.023 2.05151V0.448976C217.384 0.13882 217.848 -0.0211702 218.323 0.00225204C219.438 0.00225204 219.885 0.652975 219.885 1.27461C219.878 1.60101 219.778 1.91853 219.593 2.18789C219.408 2.45705 219.15 2.66634 218.848 2.78969C216.67 3.51483 214.32 3.51483 212.142 2.78969C211.842 2.66747 211.582 2.46007 211.395 2.1928C211.21 1.92552 211.107 1.60989 211.095 1.28424C211.095 0.662608 211.552 0.0118858 212.667 0.0118858C213.142 -0.0094586 213.607 0.150152 213.967 0.458797V2.05151ZM238.714 4.19823V7.94711H236.96L236.667 5.68422L236.367 5.47059H232.903V9.47201C233.437 9.42346 234.203 9.36528 234.765 9.36528C235.965 9.29502 237.158 9.58591 238.192 10.2006C238.663 10.5171 239.044 10.9537 239.292 11.4657C239.541 11.9776 239.65 12.5466 239.607 13.1142C239.629 13.6094 239.539 14.1032 239.344 14.5588C239.15 15.0144 238.854 15.4203 238.482 15.7463C237.458 16.4637 236.216 16.8066 234.969 16.7176H228.111V15.6202L229.285 15.5522L229.587 15.2025V5.63567L229.285 5.35404L228.111 5.28604V4.19823H238.714ZM232.894 15.4258C233.179 15.4434 233.464 15.4434 233.749 15.4258C234.081 15.4575 234.418 15.4186 234.735 15.3115C235.052 15.2044 235.345 15.0316 235.592 14.8042C235.799 14.5694 235.956 14.2932 236.052 13.9938C236.146 13.6942 236.179 13.378 236.145 13.0656C236.179 12.7113 236.133 12.3535 236.014 12.018C235.896 11.6824 235.705 11.377 235.456 11.1233C235.028 10.7646 234.477 10.59 233.922 10.6376C233.577 10.6348 233.232 10.6707 232.894 10.7444V15.4258ZM248.115 4.10095L252.442 15.4741L253.568 15.62V16.7078H247.533V15.62L248.804 15.5325L248.959 15.2896L247.989 12.512H243.982L243.012 15.2703L243.197 15.4936L244.389 15.62V16.7078H239.899V15.62L241.11 15.552L245.37 4.10095H248.115ZM244.448 11.2687H247.427L245.923 7.14093L244.448 11.2687ZM260.009 4.19823V5.28604L258.892 5.35404L258.592 5.63567V9.45255H263.248V5.63567L262.958 5.35404L261.832 5.28604V4.19823H268.012V5.28604L266.867 5.35404L266.567 5.63567V15.2025L266.867 15.5522L268.012 15.6298V16.708H261.832V15.6298L262.958 15.5522L263.248 15.2025V10.8415H258.592V15.2025L258.892 15.5522L260.009 15.6298V16.708H253.828V15.6298L254.964 15.5522L255.274 15.2025V5.63567L254.964 5.35404L253.828 5.28604V4.19823H260.009ZM269.059 15.62L270.282 15.552L270.593 15.2023V5.63549L270.282 5.35385L269.059 5.28585V4.19804H275.278V5.28585L274.201 5.35385L273.901 5.63549V9.58855H274.734C275.123 9.61103 275.508 9.4977 275.821 9.26801C276.15 8.96107 276.397 8.57724 276.54 8.15111L277.285 6.35421C277.519 5.60942 277.944 4.93924 278.517 4.41186C278.947 4.04655 279.496 3.85294 280.061 3.86786C280.344 3.84709 280.627 3.88845 280.891 3.98913C281.157 4.08981 281.396 4.24734 281.593 4.45059C281.877 4.75168 282.032 5.15344 282.021 5.56749C282.04 5.99456 281.896 6.41314 281.619 6.73784C281.342 7.06273 280.951 7.26938 280.527 7.31584L279.004 6.0144C278.84 6.26203 278.71 6.52969 278.615 6.81075L278.014 8.32602C277.606 9.35546 277.198 9.80218 276.636 10.0353C277.242 10.1441 277.804 10.4238 278.257 10.8415C278.793 11.3288 279.219 11.9247 279.508 12.5898L280.662 15.1151L281.021 15.4063L282.321 15.5132V16.6011H277.47V15.8725L275.997 12.5024C275.859 12.0951 275.636 11.7211 275.346 11.4047C275.217 11.2829 275.065 11.1888 274.897 11.1288C274.731 11.0685 274.553 11.0436 274.376 11.0551H273.872V15.2509L274.172 15.6005L275.25 15.6685V16.7563H269.031L269.059 15.62Z" fill="#FFFDD7"/>
<path fill-rule="evenodd" clip-rule="evenodd" d="M0 5.8291H38.8044V44.6792H0V5.8291ZM2.40624 8.14963H36.6509V42.901H2.40624V8.14963ZM35.9816 8.99447H3.06583V42.017H35.9816V8.99447ZM6.82966 15.9587H4.08437L4.03588 39.0551H6.78117V40.6478H34.4389V10.6362H6.82966V15.9587ZM20.5758 17.1255H18.3737C15.9435 19.4157 13.5395 21.7232 11.1324 24.0336L11.132 24.034L11.1309 24.035L11.1299 24.036C9.93432 25.1835 8.73804 26.3318 7.53745 27.4789C11.1268 31.0467 14.739 34.608 18.3737 38.1627H20.5758C18.7685 36.3727 16.9562 34.5875 15.1464 32.8048C13.3426 31.0279 11.5411 29.2535 9.74938 27.4789C13.3388 24.0213 16.967 20.5541 20.5758 17.1255ZM32.935 21.4479H21.701V23.9148H22.4384C27.6478 23.9148 31.9164 27.0715 31.9164 30.9564C31.9164 34.8414 27.6478 37.9494 22.4384 37.9203C22.1929 37.9356 21.9467 37.9356 21.701 37.9203V38.1049H32.935V21.4479ZM16.1329 17.1919H5.40344V38.0543H16.1329C12.6501 34.5384 9.21601 31.0128 5.79153 27.4871C9.21601 24.0586 12.6501 20.6301 16.1329 17.1919ZM21.8277 26.1579C20.324 26.0995 19.1112 28.4208 19.1112 31.2084C19.1112 33.3115 19.8364 36.3484 22.3904 36.3484C23.894 36.3484 25.0872 34.1048 25.0872 31.2883C25.0872 29.1793 24.3908 26.1579 21.8277 26.1579Z" fill="#FFFDD7"/>
</svg>
