<?xml version="1.0" standalone="no"?>
<!DOCTYPE svg PUBLIC "-//W3C//DTD SVG 20010904//EN"
 "http://www.w3.org/TR/2001/REC-SVG-20010904/DTD/svg10.dtd">
<svg version="1.0" xmlns="http://www.w3.org/2000/svg"
 width="150.000000pt" height="150.000000pt" viewBox="0 0 150.000000 150.000000"
 preserveAspectRatio="xMidYMid meet">

<g transform="translate(0.000000,150.000000) scale(0.100000,-0.100000)"
fill="#000000" stroke="none">
<path d="M500 1394 c-135 -57 -252 -108 -260 -112 -8 -5 -65 -126 -127 -269
l-112 -260 109 -267 c59 -147 110 -269 112 -271 1 -1 73 -31 158 -65 85 -34
203 -82 262 -107 l108 -45 257 107 c142 59 263 112 270 118 6 7 48 102 93 212
45 110 93 225 107 257 l25 56 -107 259 c-59 142 -112 263 -119 269 -10 10
-522 226 -528 223 -2 -1 -113 -48 -248 -105z m510 -15 c135 -56 250 -106 257
-113 6 -6 59 -124 116 -263 l105 -252 -108 -261 c-60 -144 -110 -263 -112
-264 -18 -13 -507 -209 -518 -208 -25 1 -514 203 -522 216 -14 22 -208 506
-208 518 0 28 216 517 230 521 8 3 121 50 250 106 129 55 242 100 250 101 9 0
126 -45 260 -101z"/>
</g>
</svg>
