<svg width="252" height="39" viewBox="0 0 252 39" fill="none" xmlns="http://www.w3.org/2000/svg">
<path d="M112.685 11.7859L118.006 7.90286H100.364V30.924H118.006V27.0409H105.405V21.2163H116.046V17.3332H105.405V11.7859H112.685ZM90.703 11.7859L96.0235 7.90286H75.8614V30.924H86.3625C92.2431 30.924 95.6035 28.289 95.6035 23.7125C95.6035 19.2747 92.5232 16.9171 86.9226 16.9171H80.7619V11.7859H90.703ZM86.2225 20.6615C89.4428 20.6615 90.843 21.771 90.843 23.8512C90.843 25.9314 89.3028 27.0409 86.2225 27.0409H80.9019V20.6615H86.2225ZM132.147 7.90286H122.626V30.924H127.667V24.4059H132.287C138.448 24.4059 142.228 21.2163 142.228 16.0851C142.228 10.9539 138.308 7.90286 132.147 7.90286ZM132.147 20.5229H127.667V11.6473H132.147C135.368 11.6473 137.188 13.1728 137.188 16.0851C137.048 18.9974 135.368 20.5229 132.147 20.5229ZM67.3205 25.9314C65.9203 26.6248 64.5202 27.0409 62.98 27.0409C58.4996 27.0409 55.1392 23.8512 55.1392 19.4134C55.1392 14.9756 58.3595 11.7859 62.98 11.7859C64.6602 11.7859 66.2004 12.3407 67.6005 13.1728L71.2409 10.5378L70.9609 10.2604C68.8607 8.45759 66.0604 7.48682 62.84 7.48682C59.3397 7.48682 56.2593 8.59627 53.8791 10.8152C51.6388 13.0341 50.2387 16.0851 50.3787 19.2747C50.3787 22.4644 51.6388 25.5154 53.8791 27.873C56.2593 30.0919 59.4797 31.34 62.7 31.2013C66.3404 31.2013 69.4207 29.9532 71.661 27.7343L68.4406 25.3767L67.3205 25.9314ZM218.396 17.3332H207.615V7.90286H202.575V30.924H207.615V21.4936H218.396V30.924H223.437V7.90286H218.396V17.3332ZM184.373 7.90286L174.292 30.924H179.332L181.293 26.3475H191.934L193.894 30.924H199.214L189.413 7.90286H184.373ZM182.973 22.4644L186.893 13.1728L190.534 22.4644H182.973ZM241.639 18.9974L250.74 7.90286H244.999L237.438 17.7492H234.638V7.90286H229.598V30.924H234.638V21.6323H237.858L245.559 30.924H252L241.639 18.9974ZM163.791 16.9171H157.63V11.7859H170.791V7.90286H152.589V30.924H163.091C168.971 30.924 172.332 28.289 172.332 23.7125C172.472 19.2747 169.391 16.9171 163.791 16.9171ZM162.951 27.1796H157.63V20.8002H162.951C166.171 20.8002 167.571 21.9097 167.571 23.9899C167.711 26.0701 166.031 27.1796 162.951 27.1796Z" fill="#FFFDD7"/>
<path fill-rule="evenodd" clip-rule="evenodd" d="M19.1129 1.47901e-05H19.1092C14.1773 -0.00602181 9.36156 1.95645 5.83751 5.36865C0.220408 10.7843 -1.54544 19.3578 1.42754 26.5583C3.28327 31.0531 6.86862 34.7726 11.3454 36.7671C16.1012 38.8857 21.6205 38.9589 26.4303 36.9579C30.9603 35.0733 34.6333 31.4567 36.6035 26.9994C38.1558 23.4879 38.6151 19.5362 37.943 15.7642L33.8244 18.811C33.8244 21.0156 33.4579 23.1678 32.5595 25.1969C31.0426 28.6225 28.2208 31.405 24.7388 32.8557C21.0376 34.3977 16.803 34.3415 13.1408 32.7079C9.69608 31.1712 6.94497 28.3171 5.51418 24.8566C3.98062 21.1475 4.03462 16.884 5.65935 13.2147C7.17518 9.79141 9.99564 7.01044 13.4785 5.55918C18.0389 3.65892 23.3225 4.203 27.404 7.01375L31.1244 4.26105C27.7605 1.52675 23.4627 -0.00549162 19.1129 1.47901e-05ZM34.2505 7.46495C35.1595 8.64462 35.929 9.92622 36.5435 11.284L19.1132 24.1818L11.8286 19.598V14.0835L19.1132 18.6673L34.2505 7.46495Z" fill="#FFFDD7"/>
</svg>
