<svg width="316" height="39" viewBox="0 0 316 39" fill="none" xmlns="http://www.w3.org/2000/svg">
<path d="M19.4751 31.0947C12.7996 31.0947 7.36122 25.7433 7.36122 19.1733C7.36122 12.6033 12.798 7.25038 19.4719 7.25038H20.2303V0H19.4735C8.74056 0 0 8.60479 0 19.1717C0 29.8082 8.74056 38.413 19.4751 38.413H20.2319V31.0979H19.4751V31.0947Z" fill="#FF4B5F"/>
<path fill-rule="evenodd" clip-rule="evenodd" d="M23.3968 10.3687V0.410156C32.3441 2.17063 39.0182 9.89392 39.0182 19.1742C39.0182 28.5254 32.341 36.2456 23.3968 37.9413V27.9827H19.4734C14.5201 27.9827 10.5292 24.0517 10.5292 19.1773C10.5292 14.2997 14.5201 10.3687 19.4754 10.3687H23.3968ZM60.9708 27.844C62.9994 27.8502 64.9663 27.1565 66.5432 25.88L69.64 28.9324C67.3695 30.9611 64.3422 32.182 60.9708 32.182C53.6756 32.182 47.8266 26.287 47.8266 19.1742C47.8266 12.0614 53.6756 6.23422 60.9708 6.23422C64.2477 6.22497 67.4108 7.43357 69.8471 9.6226L66.7504 12.6688C65.153 11.2659 63.0974 10.4951 60.9708 10.5044C56.0823 10.5044 52.162 14.3645 52.162 19.1742C52.162 23.9839 56.0838 27.844 60.9708 27.844ZM196.882 18.7672L206.585 7.25166H210.439V31.0967H206.585V13.8897L196.882 25.1339L187.042 13.6184V31.0998H183.119V7.25166H187.042V7.38732L187.11 7.25166L196.882 18.7672ZM85.8809 32.1142C93.1062 32.1142 99.025 26.3548 99.025 19.1742C99.025 12.0614 93.1062 6.23422 85.8809 6.23422C78.6555 6.23422 72.7386 12.0614 72.7386 19.1742C72.7386 26.287 78.5876 32.1142 85.8809 32.1142ZM85.813 10.5044C90.7 10.5044 94.6214 14.3645 94.6214 19.1742C94.6214 23.9839 90.7 27.844 85.813 27.844C80.926 27.844 77.0046 23.9839 77.0046 19.1742C77.0046 14.3645 80.926 10.5044 85.813 10.5044ZM165.984 32.1142C173.209 32.1142 179.128 26.3548 179.128 19.1742C179.128 12.0614 173.277 6.23422 165.984 6.23422C158.758 6.23422 152.84 12.0614 152.84 19.1742C152.84 26.287 158.689 32.1142 165.984 32.1142ZM165.984 10.5044C170.871 10.5044 174.792 14.3645 174.792 19.1742C174.792 23.9839 170.8 27.844 165.984 27.844C161.097 27.844 157.175 23.9839 157.175 19.1742C157.175 14.3645 161.097 10.5044 165.984 10.5044ZM147.471 7.25166H152.772L140.797 19.242L152.633 31.0998H147.403L137.424 21.1382H133.434V31.0998H129.58V7.25166H133.434V17.2781H137.495L147.471 7.25166ZM310.773 7.25166H316L304.095 19.242L315.863 31.0998H310.633L300.725 21.1382H296.664V31.0998H292.81V7.25166H296.664V17.2781H300.725L310.773 7.25166ZM263.289 31.0967H259.02L256.684 25.951H244.157L241.819 31.0998H237.553L248.218 7.25166H252.621L263.289 31.0967ZM250.421 12.1292L245.88 22.1556H254.963L250.421 12.1292ZM122.423 19.1742C123.826 20.4629 124.626 22.282 124.626 24.1874C124.626 27.9797 121.529 31.0998 117.674 31.1676H103.5V7.25166H117.674C121.502 7.24549 124.613 10.3379 124.626 14.161C124.626 16.125 123.73 17.8885 122.423 19.1742ZM117.606 11.1148H107.421V17.2071H117.606C119.326 17.2071 120.701 15.8536 120.701 14.161C120.701 12.4653 119.326 11.1148 117.606 11.1148ZM107.421 27.3045H117.606C119.328 27.3045 120.703 25.88 120.77 24.1905C120.77 23.3858 120.433 22.6304 119.884 22.0724C119.324 21.5051 118.542 21.1412 117.674 21.1412H107.421V27.3045ZM284.071 17.2781V7.31949H287.994V31.0289H284.071V21.1351H269.965V31.0289H266.044V7.31949H269.965V17.2781H284.071ZM229.155 17.2781C233.009 17.2781 236.175 20.392 236.175 24.1874C236.175 27.9797 233.011 31.0998 229.154 31.1646H215.047V7.25166H233.835V11.1118H218.971V17.2781H229.155ZM218.972 27.3045H229.157C230.878 27.3045 232.254 25.88 232.254 24.1905C232.254 22.5626 230.878 21.1412 229.157 21.1412H218.972V27.3045Z" fill="#FFFDD7"/>
</svg>
