<?xml version="1.0" standalone="no"?>
<!DOCTYPE svg PUBLIC "-//W3C//DTD SVG 20010904//EN"
 "http://www.w3.org/TR/2001/REC-SVG-20010904/DTD/svg10.dtd">
<svg version="1.0" xmlns="http://www.w3.org/2000/svg"
 width="1400.000000pt" height="254.000000pt" viewBox="0 0 1400.000000 254.000000"
 preserveAspectRatio="xMidYMid meet">

<g transform="translate(0.000000,254.000000) scale(0.100000,-0.100000)"
fill="#000000" stroke="none">
<path d="M7077 2455 c-482 -81 -867 -465 -952 -949 -122 -701 431 -1356 1145
-1356 107 0 331 33 317 46 -2 3 -24 0 -48 -6 -24 -5 -89 -13 -144 -16 -289
-19 -547 82 -776 303 -337 325 -470 829 -334 1263 106 335 367 597 680 681
118 32 355 32 475 0 417 -111 747 -487 846 -961 25 -118 25 -345 1 -460 -71
-332 -248 -579 -522 -727 -77 -42 -64 -43 18 -2 154 78 314 212 418 349 65 84
151 261 184 373 114 400 -1 841 -296 1136 -264 264 -647 387 -1012 326z"/>
<path d="M9705 2450 c-244 -38 -473 -156 -650 -335 -146 -147 -246 -320 -302
-521 -26 -92 -28 -112 -28 -289 0 -177 2 -197 28 -289 56 -201 156 -374 302
-521 237 -239 544 -359 875 -342 151 8 261 36 395 102 364 179 586 535 619
995 3 42 2 66 -3 55 -4 -11 -11 -63 -14 -115 -11 -174 -81 -382 -183 -547 -63
-102 -225 -264 -319 -319 -84 -48 -177 -87 -265 -111 -98 -26 -348 -23 -452 5
-309 84 -572 303 -723 602 -167 331 -186 679 -55 1007 112 281 352 498 635
574 115 32 335 32 455 2 349 -88 630 -338 787 -702 l24 -56 -6 235 c-3 129 -6
294 -7 365 -2 106 -3 90 -8 -83 l-5 -213 -40 52 c-74 98 -228 245 -315 302
-168 109 -297 146 -530 152 -85 2 -182 0 -215 -5z"/>
<path d="M60 2441 l25 -7 3 -1119 c2 -1044 1 -1121 -15 -1133 -14 -10 2 -12
88 -12 75 1 99 3 87 11 -17 9 -18 49 -18 609 l0 598 27 34 27 33 -27 -24 -27
-24 0 521 0 522 -97 -1 c-56 -1 -87 -4 -73 -8z"/>
<path d="M990 2440 c30 -4 61 -9 69 -11 7 -2 16 2 18 9 4 9 -14 12 -69 11
l-73 -2 55 -7z"/>
<path d="M1629 2439 c25 -5 48 -14 53 -21 4 -7 8 -510 8 -1119 0 -846 -3
-1108 -12 -1117 -9 -9 15 -12 107 -10 66 0 104 3 85 5 -19 3 -38 10 -42 16 -4
7 -8 297 -8 645 l0 632 223 0 c243 0 298 8 391 58 109 58 217 199 245 322 25
108 6 245 -47 344 -35 66 -134 164 -198 198 -101 54 -138 58 -509 57 -222 -1
-325 -4 -296 -10z m552 -9 c176 -33 327 -177 374 -357 68 -259 -110 -530 -382
-583 -74 -15 -288 -9 -319 8 -12 6 -24 26 -28 43 -11 55 -7 813 5 846 5 17 20
35 32 41 28 14 248 15 318 2z"/>
<path d="M2916 2441 c93 -11 84 109 84 -1142 0 -1045 -1 -1109 -17 -1118 -13
-7 172 -10 590 -11 l607 0 -1 128 -2 127 -7 -85 c-9 -102 -23 -136 -63 -150
-19 -6 -195 -10 -492 -10 -380 0 -465 2 -474 14 -18 21 -11 1460 7 1478 10 10
72 14 252 16 l239 3 13 -23 c7 -13 15 -63 19 -113 4 -59 6 -12 6 140 0 170 -2
207 -7 140 -9 -106 -15 -123 -44 -131 -12 -3 -119 -4 -239 -2 -192 3 -218 5
-234 21 -17 16 -18 45 -18 352 0 261 3 337 13 347 17 17 883 25 926 8 31 -12
46 -44 56 -125 7 -56 7 -52 9 43 l1 102 -637 -1 c-351 -1 -615 -5 -587 -8z"/>
<path d="M4490 2443 c41 -15 40 8 40 -1137 0 -606 -4 -1106 -8 -1112 -4 -6
-14 -14 -22 -17 -8 -3 35 -5 95 -6 75 0 103 3 88 9 l-23 9 0 1100 c0 1067 1
1099 19 1122 l19 24 419 3 c230 1 428 0 441 -3 l22 -5 0 -1124 c0 -890 -3
-1125 -12 -1129 -7 -3 41 -5 107 -5 66 0 104 3 85 7 l-35 6 -3 1133 -2 1132
-623 -1 c-342 0 -615 -3 -607 -6z"/>
<path d="M11251 2378 c1 -72 1 -72 9 -25 15 89 9 87 282 87 l238 0 0 -1117 c0
-615 -4 -1123 -8 -1129 -4 -6 -14 -14 -22 -17 -8 -3 37 -5 100 -5 63 0 108 2
100 5 -39 14 -40 24 -40 437 0 221 3 722 7 1114 l6 712 218 0 c120 0 229 -4
243 -10 40 -15 50 -46 56 -180 l7 -125 1 163 2 162 -600 0 -600 0 1 -72z"/>
<path d="M12789 2439 c25 -5 48 -14 53 -21 4 -7 8 -510 8 -1119 0 -846 -3
-1108 -12 -1117 -20 -20 617 -16 701 3 90 22 156 60 231 135 126 126 183 279
183 495 1 117 -2 138 -27 210 -39 115 -80 180 -160 260 -125 124 -256 176
-437 173 l-104 -1 115 -6 c101 -6 123 -10 183 -39 128 -60 227 -190 274 -362
26 -94 26 -432 0 -542 -25 -107 -68 -188 -128 -242 -83 -74 -115 -81 -396 -81
-239 0 -243 0 -265 23 l-23 23 -3 537 c-2 295 0 561 3 590 7 61 32 92 71 92
14 0 23 4 19 10 -3 6 -19 10 -34 10 -57 0 -56 -8 -59 507 l-3 473 -117 -1
c-96 -1 -109 -3 -73 -10z"/>
<path d="M774 2068 l-19 -23 23 19 c21 18 27 26 19 26 -2 0 -12 -10 -23 -22z"/>
<path d="M734 2018 l-19 -23 23 19 c12 11 22 21 22 23 0 8 -8 2 -26 -19z"/>
<path d="M673 1943 c-21 -27 -70 -85 -107 -131 -38 -45 -63 -81 -56 -80 9 2
118 -258 316 -752 167 -415 303 -763 304 -772 0 -9 -12 -21 -28 -26 -21 -8 1
-11 93 -11 101 -1 116 1 96 12 -19 10 -80 158 -347 842 -178 457 -322 835
-320 840 2 6 25 36 50 68 26 31 45 57 42 57 -2 0 -22 -21 -43 -47z"/>
<path d="M464 1688 l-19 -23 23 19 c21 18 27 26 19 26 -2 0 -12 -10 -23 -22z"/>
<path d="M424 1638 l-19 -23 23 19 c21 18 27 26 19 26 -2 0 -12 -10 -23 -22z"/>
<path d="M384 1588 l-19 -23 23 19 c21 18 27 26 19 26 -2 0 -12 -10 -23 -22z"/>
<path d="M320 1510 c-23 -27 -40 -50 -37 -50 3 0 24 23 47 50 23 28 40 50 37
50 -3 0 -24 -22 -47 -50z"/>
<path d="M7760 1431 c0 -27 -4 -61 -10 -75 l-10 -26 -477 2 -477 3 -7 25 c-4
16 -7 1 -7 -40 0 -36 3 -56 5 -45 12 46 1 45 494 45 356 0 470 -3 475 -12 4
-7 11 -28 15 -48 4 -21 7 15 8 93 0 70 -1 127 -4 127 -3 0 -5 -22 -5 -49z"/>
<path d="M7670 230 c-8 -5 -10 -10 -5 -10 6 0 17 5 25 10 8 5 11 10 5 10 -5 0
-17 -5 -25 -10z"/>
</g>
</svg>
