<svg width="133" height="48" viewBox="0 0 133 48" fill="none" xmlns="http://www.w3.org/2000/svg">
<path d="M9.18315 0L6.88502 6.31967H38.7207L41.0189 0H9.18315ZM5.7373 9.47683L3.43917 15.7952H35.2749L37.573 9.47683C37.573 9.47683 5.7373 9.47683 5.7373 9.47683ZM2.29813 18.9537L0 25.2707H31.8357L34.1312 18.9523C34.1325 18.9537 2.29813 18.9537 2.29813 18.9537Z" fill="#FFFDD7"/>
<path d="M66.9276 27.2539V27.3852C68.3572 27.9116 69.7241 28.8332 70.4389 29.4252C72.6488 31.2684 73.6255 33.7022 73.6255 36.8607C73.6255 42.0619 70.8945 45.8111 66.4065 46.9966C65.0396 47.3917 63.61 47.523 60.9444 47.523H47.3561V9.48438H59.3865C61.8583 9.48438 63.5472 9.61564 65.0423 10.0095C69.3994 11.1949 72.2614 14.2221 72.2614 19.0255C72.2614 21.5933 71.3515 23.7659 69.8563 25.2126C69.2057 25.8703 68.2958 26.6605 66.9302 27.2526L66.9276 27.2539ZM54.8985 31.2684V41.2716H60.1013C61.6606 41.2716 63.0929 41.1403 64.1324 40.1531C65.1732 39.1659 65.6275 37.9149 65.6275 36.27C65.6275 35.0216 65.3015 33.8361 64.6522 32.9802C63.5472 31.5979 62.1803 31.2684 59.8408 31.2684H54.8972H54.8985ZM54.8317 24.6862H59.0592C60.3592 24.6862 61.0099 24.6862 61.6592 24.4892C63.4162 23.9615 64.5212 22.3849 64.5212 20.2123C64.5212 17.6458 63.3508 16.526 61.6592 16.001C60.9431 15.8027 60.2296 15.7384 58.7986 15.7384H54.8317V24.6875V24.6862ZM84.9398 47.5243V15.8683H74.0811V9.48571H104.255L102.109 15.8683H92.4835V47.5243H84.9398ZM106.596 47.5243V9.48571H131.047L128.901 15.8683H114.075V24.2937H120.124C125.001 24.2937 127.537 25.4791 129.294 26.9914C130.66 28.1768 133 30.8076 133 36.0088C133 41.1417 130.595 43.9707 128.577 45.42C126.237 47.0635 123.766 47.5257 118.757 47.5257H106.597H106.596V47.5243ZM114.074 41.139H119.731C121.877 41.139 123.177 40.6126 124.087 39.4271C124.541 38.8364 125.192 37.7809 125.192 35.8079C125.192 33.8348 124.541 32.4511 123.241 31.4639C122.462 30.8732 121.42 30.545 119.664 30.545H114.071V41.139H114.074Z" fill="#FFFDD7"/>
</svg>
